<?xml version="1.0" encoding="UTF-8" standalone="no"?>
<!DOCTYPE svg PUBLIC "-//W3C//DTD SVG 1.1//EN"
 "http://www.w3.org/Graphics/SVG/1.1/DTD/svg11.dtd">
<!-- Generated by graphviz version 2.43.0 (0)
 -->
<!-- Title: deterministic Pages: 1 -->
<svg width="1161pt" height="791pt"
 viewBox="0.00 0.00 1161.00 791.50" xmlns="http://www.w3.org/2000/svg" xmlns:xlink="http://www.w3.org/1999/xlink">
<g id="graph0" class="graph" transform="scale(1 1) rotate(0) translate(4 787.5)">
<title>deterministic</title>
<polygon fill="white" stroke="transparent" points="-4,4 -4,-787.5 1157,-787.5 1157,4 -4,4"/>
<!-- 0 -->
<g id="node1" class="node">
<title>0</title>
<ellipse fill="none" stroke="black" stroke-width="2" cx="18" cy="-184.5" rx="18" ry="18"/>
<text text-anchor="middle" x="18" y="-180.8" font-family="Times,serif" font-size="14.00">0</text>
</g>
<!-- 1 -->
<g id="node2" class="node">
<title>1</title>
<ellipse fill="none" stroke="black" cx="196" cy="-728.5" rx="18" ry="18"/>
<ellipse fill="none" stroke="black" cx="196" cy="-728.5" rx="22" ry="22"/>
<text text-anchor="middle" x="196" y="-724.8" font-family="Times,serif" font-size="14.00">1</text>
<text text-anchor="middle" x="152.5" y="-695.3" font-family="Times,serif" font-size="14.00">SPACE</text>
</g>
<!-- 0&#45;&gt;1 -->
<g id="edge1" class="edge">
<title>0&#45;&gt;1</title>
<path fill="none" stroke="black" d="M18.96,-202.74C18.97,-289.78 20.92,-660.37 54,-698.5 80.82,-729.41 130.9,-733.07 163.59,-731.68"/>
<polygon fill="black" stroke="black" points="164.18,-735.16 173.95,-731.05 163.75,-728.17 164.18,-735.16"/>
<text text-anchor="middle" x="74" y="-726.3" font-family="Times,serif" font-size="14.00">[ \t\r\n]</text>
</g>
<!-- 2 -->
<g id="node3" class="node">
<title>2</title>
<ellipse fill="none" stroke="black" cx="971.5" cy="-544.5" rx="18" ry="18"/>
<ellipse fill="none" stroke="black" cx="971.5" cy="-544.5" rx="22" ry="22"/>
<text text-anchor="middle" x="971.5" y="-540.8" font-family="Times,serif" font-size="14.00">2</text>
<text text-anchor="middle" x="973" y="-511.3" font-family="Times,serif" font-size="14.00">IDENT</text>
</g>
<!-- 0&#45;&gt;2 -->
<g id="edge5" class="edge">
<title>0&#45;&gt;2</title>
<path fill="none" stroke="black" d="M19.17,-202.59C20.5,-292.23 32.06,-684.5 133,-684.5 133,-684.5 133,-684.5 785.5,-684.5 859.99,-684.5 923.4,-611.44 952.86,-570.88"/>
<polygon fill="black" stroke="black" points="955.87,-572.7 958.79,-562.51 950.15,-568.65 955.87,-572.7"/>
<text text-anchor="middle" x="392" y="-688.3" font-family="Times,serif" font-size="14.00">[a&#45;df&#45;zA&#45;Z]</text>
</g>
<!-- 3 -->
<g id="node4" class="node">
<title>3</title>
<ellipse fill="none" stroke="black" cx="134" cy="-270.5" rx="18" ry="18"/>
<ellipse fill="none" stroke="black" cx="134" cy="-270.5" rx="22" ry="22"/>
<text text-anchor="middle" x="134" y="-266.8" font-family="Times,serif" font-size="14.00">3</text>
<text text-anchor="middle" x="135.5" y="-237.3" font-family="Times,serif" font-size="14.00">IDENT</text>
</g>
<!-- 0&#45;&gt;3 -->
<g id="edge8" class="edge">
<title>0&#45;&gt;3</title>
<path fill="none" stroke="black" d="M32.98,-195.04C51.54,-209.04 84.64,-234.02 107.66,-251.38"/>
<polygon fill="black" stroke="black" points="105.84,-254.39 115.93,-257.62 110.06,-248.81 105.84,-254.39"/>
<text text-anchor="middle" x="74" y="-243.3" font-family="Times,serif" font-size="14.00">e</text>
</g>
<!-- 9 -->
<g id="node10" class="node">
<title>9</title>
<ellipse fill="none" stroke="black" cx="320" cy="-175.5" rx="18" ry="18"/>
<ellipse fill="none" stroke="black" cx="320" cy="-175.5" rx="22" ry="22"/>
<text text-anchor="middle" x="320" y="-171.8" font-family="Times,serif" font-size="14.00">9</text>
<text text-anchor="middle" x="268.5" y="-142.3" font-family="Times,serif" font-size="14.00">NUMBER</text>
</g>
<!-- 0&#45;&gt;9 -->
<g id="edge26" class="edge">
<title>0&#45;&gt;9</title>
<path fill="none" stroke="black" d="M36.43,-183.98C85.49,-182.5 225.26,-178.31 287.93,-176.43"/>
<polygon fill="black" stroke="black" points="288.11,-179.93 298,-176.13 287.9,-172.93 288.11,-179.93"/>
<text text-anchor="middle" x="134" y="-185.3" font-family="Times,serif" font-size="14.00">[0&#45;9]</text>
</g>
<!-- 10 -->
<g id="node11" class="node">
<title>10</title>
<ellipse fill="none" stroke="black" cx="483.5" cy="-143.5" rx="19.5" ry="19.5"/>
<ellipse fill="none" stroke="black" cx="483.5" cy="-143.5" rx="23.5" ry="23.5"/>
<text text-anchor="middle" x="483.5" y="-139.8" font-family="Times,serif" font-size="14.00">10</text>
<text text-anchor="middle" x="431" y="-123.8" font-family="Times,serif" font-size="14.00">EXCLAM</text>
</g>
<!-- 0&#45;&gt;10 -->
<g id="edge29" class="edge">
<title>0&#45;&gt;10</title>
<path fill="none" stroke="black" d="M33.37,-174.52C54.28,-160.99 94.8,-138.5 133,-138.5 133,-138.5 133,-138.5 321,-138.5 365.48,-138.5 416.82,-140.42 449.46,-141.88"/>
<polygon fill="black" stroke="black" points="449.62,-145.39 459.77,-142.35 449.94,-138.4 449.62,-145.39"/>
<text text-anchor="middle" x="196" y="-142.3" font-family="Times,serif" font-size="14.00">!</text>
</g>
<!-- T -->
<g id="node13" class="node">
<title>T</title>
<ellipse fill="none" stroke="black" cx="1135" cy="-283.5" rx="18" ry="18"/>
<text text-anchor="middle" x="1135" y="-279.8" font-family="Times,serif" font-size="14.00">T</text>
</g>
<!-- 0&#45;&gt;T -->
<g id="edge35" class="edge">
<title>0&#45;&gt;T</title>
<path fill="none" stroke="black" d="M29.03,-169.69C46.86,-145.34 86.59,-99.5 133,-99.5 133,-99.5 133,-99.5 972.5,-99.5 1031.47,-99.5 1058.74,-96.41 1099,-139.5 1128.51,-171.08 1134.36,-223.23 1134.9,-255.35"/>
<polygon fill="black" stroke="black" points="1131.4,-255.42 1134.9,-265.42 1138.4,-255.41 1131.4,-255.42"/>
<text text-anchor="middle" x="483.5" y="-103.3" font-family="Times,serif" font-size="14.00">^a&#45;zA&#45;Z0&#45;9!~</text>
</g>
<!-- 11 -->
<g id="node14" class="node">
<title>11</title>
<ellipse fill="none" stroke="black" cx="134" cy="-19.5" rx="19.5" ry="19.5"/>
<text text-anchor="middle" x="134" y="-15.8" font-family="Times,serif" font-size="14.00">11</text>
</g>
<!-- 0&#45;&gt;11 -->
<g id="edge31" class="edge">
<title>0&#45;&gt;11</title>
<path fill="none" stroke="black" d="M20.68,-166.57C23.72,-142.54 32.01,-99.56 54,-70.5 67.42,-52.76 88.94,-39.46 106.13,-30.89"/>
<polygon fill="black" stroke="black" points="108.1,-33.83 115.65,-26.4 105.12,-27.5 108.1,-33.83"/>
<text text-anchor="middle" x="74" y="-74.3" font-family="Times,serif" font-size="14.00">~</text>
</g>
<!-- 1&#45;&gt;1 -->
<g id="edge2" class="edge">
<title>1&#45;&gt;1</title>
<path fill="none" stroke="black" d="M184.93,-747.84C182.87,-758.6 186.55,-768.5 196,-768.5 202.2,-768.5 205.92,-764.23 207.16,-758.26"/>
<polygon fill="black" stroke="black" points="210.66,-757.81 207.07,-747.84 203.66,-757.87 210.66,-757.81"/>
<text text-anchor="middle" x="196" y="-772.3" font-family="Times,serif" font-size="14.00">[ \t\r\n]</text>
</g>
<!-- 1&#45;&gt;T -->
<g id="edge3" class="edge">
<title>1&#45;&gt;T</title>
<path fill="none" stroke="black" d="M218.16,-729.06C242.49,-729.65 283.62,-730.5 319,-730.5 319,-730.5 319,-730.5 972.5,-730.5 1072.47,-730.5 1063.29,-637.88 1099,-544.5 1129.74,-464.11 1134.2,-360.8 1134.4,-311.76"/>
<polygon fill="black" stroke="black" points="1137.9,-311.6 1134.39,-301.6 1130.9,-311.61 1137.9,-311.6"/>
<text text-anchor="middle" x="584" y="-734.3" font-family="Times,serif" font-size="14.00">[^ \t\r\n]</text>
</g>
<!-- 2&#45;&gt;2 -->
<g id="edge6" class="edge">
<title>2&#45;&gt;2</title>
<path fill="none" stroke="black" d="M956.44,-560.93C951.54,-572.74 956.56,-584.5 971.5,-584.5 982.12,-584.5 987.73,-578.55 988.32,-570.88"/>
<polygon fill="black" stroke="black" points="991.75,-570.17 986.56,-560.93 984.86,-571.39 991.75,-570.17"/>
<text text-anchor="middle" x="971.5" y="-588.3" font-family="Times,serif" font-size="14.00">[a&#45;zA&#45;Z0&#45;9]</text>
</g>
<!-- 2&#45;&gt;T -->
<g id="edge7" class="edge">
<title>2&#45;&gt;T</title>
<path fill="none" stroke="black" d="M993.31,-539.07C1021.95,-530.45 1072.92,-510.77 1099,-474.5 1117.48,-448.79 1127.69,-357.95 1131.81,-311.42"/>
<polygon fill="black" stroke="black" points="1135.3,-311.67 1132.66,-301.41 1128.33,-311.07 1135.3,-311.67"/>
<text text-anchor="middle" x="1062.5" y="-529.3" font-family="Times,serif" font-size="14.00">[^a&#45;zA&#45;Z0&#45;9]</text>
</g>
<!-- 3&#45;&gt;2 -->
<g id="edge9" class="edge">
<title>3&#45;&gt;2</title>
<path fill="none" stroke="black" d="M145.16,-289.61C152.24,-301.85 162.45,-317.61 174,-329.5 310.62,-470.21 355.59,-513.7 543,-571.5 663.49,-608.66 700.03,-597.02 826,-591.5 866.56,-589.72 878.99,-597.76 917,-583.5 927.77,-579.46 938.29,-572.62 947.11,-565.79"/>
<polygon fill="black" stroke="black" points="949.48,-568.38 955,-559.33 945.05,-562.96 949.48,-568.38"/>
<text text-anchor="middle" x="483.5" y="-569.3" font-family="Times,serif" font-size="14.00">[a&#45;wyzA&#45;Z0&#45;9]</text>
</g>
<!-- 4 -->
<g id="node5" class="node">
<title>4</title>
<ellipse fill="none" stroke="black" cx="258" cy="-330.5" rx="18" ry="18"/>
<ellipse fill="none" stroke="black" cx="258" cy="-330.5" rx="22" ry="22"/>
<text text-anchor="middle" x="258" y="-326.8" font-family="Times,serif" font-size="14.00">4</text>
<text text-anchor="middle" x="215.5" y="-297.3" font-family="Times,serif" font-size="14.00">IDENT</text>
</g>
<!-- 3&#45;&gt;4 -->
<g id="edge10" class="edge">
<title>3&#45;&gt;4</title>
<path fill="none" stroke="black" d="M154.06,-279.87C174,-289.68 205.52,-305.18 228.43,-316.45"/>
<polygon fill="black" stroke="black" points="227.15,-319.72 237.67,-320.99 230.24,-313.44 227.15,-319.72"/>
<text text-anchor="middle" x="196" y="-314.3" font-family="Times,serif" font-size="14.00">x</text>
</g>
<!-- 3&#45;&gt;T -->
<g id="edge11" class="edge">
<title>3&#45;&gt;T</title>
<path fill="none" stroke="black" d="M156.11,-269.14C259.51,-262.81 722.72,-238.06 1099,-276.5 1101.74,-276.78 1104.58,-277.17 1107.4,-277.63"/>
<polygon fill="black" stroke="black" points="1106.89,-281.09 1117.36,-279.5 1108.18,-274.21 1106.89,-281.09"/>
<text text-anchor="middle" x="584" y="-259.3" font-family="Times,serif" font-size="14.00">[^a&#45;zA&#45;Z0&#45;9]</text>
</g>
<!-- 4&#45;&gt;2 -->
<g id="edge12" class="edge">
<title>4&#45;&gt;2</title>
<path fill="none" stroke="black" d="M273.51,-346.8C280.58,-354.36 289.4,-363.25 298,-370.5 431.38,-482.88 473.04,-518.36 643,-557.5 761.71,-584.83 797.13,-586.17 917,-564.5 925.23,-563.01 933.85,-560.33 941.71,-557.41"/>
<polygon fill="black" stroke="black" points="943.16,-560.59 951.16,-553.64 940.57,-554.09 943.16,-560.59"/>
<text text-anchor="middle" x="584" y="-556.3" font-family="Times,serif" font-size="14.00">[a&#45;hj&#45;zA&#45;Z0&#45;9]</text>
</g>
<!-- 5 -->
<g id="node6" class="node">
<title>5</title>
<ellipse fill="none" stroke="black" cx="392" cy="-365.5" rx="18" ry="18"/>
<ellipse fill="none" stroke="black" cx="392" cy="-365.5" rx="22" ry="22"/>
<text text-anchor="middle" x="392" y="-361.8" font-family="Times,serif" font-size="14.00">5</text>
<text text-anchor="middle" x="349.5" y="-332.3" font-family="Times,serif" font-size="14.00">IDENT</text>
</g>
<!-- 4&#45;&gt;5 -->
<g id="edge13" class="edge">
<title>4&#45;&gt;5</title>
<path fill="none" stroke="black" d="M279.34,-335.89C301.07,-341.65 335.77,-350.86 360.73,-357.47"/>
<polygon fill="black" stroke="black" points="359.86,-360.86 370.42,-360.04 361.65,-354.1 359.86,-360.86"/>
<text text-anchor="middle" x="320" y="-355.3" font-family="Times,serif" font-size="14.00">i</text>
</g>
<!-- 4&#45;&gt;T -->
<g id="edge14" class="edge">
<title>4&#45;&gt;T</title>
<path fill="none" stroke="black" d="M280.02,-328.59C369.74,-320.57 729.56,-289.62 1026,-281.5 1058.43,-280.61 1066.57,-280.57 1099,-281.5 1101.56,-281.57 1104.21,-281.67 1106.87,-281.8"/>
<polygon fill="black" stroke="black" points="1106.75,-285.29 1116.92,-282.33 1107.12,-278.3 1106.75,-285.29"/>
<text text-anchor="middle" x="684" y="-303.3" font-family="Times,serif" font-size="14.00">[^a&#45;zA&#45;Z0&#45;9]</text>
</g>
<!-- 5&#45;&gt;2 -->
<g id="edge15" class="edge">
<title>5&#45;&gt;2</title>
<path fill="none" stroke="black" d="M402.08,-385.1C410.42,-401.17 424.17,-423.48 442,-437.5 471.62,-460.8 677.43,-531.32 743,-543.5 812.24,-556.36 895.39,-551.79 939.48,-547.83"/>
<polygon fill="black" stroke="black" points="939.94,-551.3 949.56,-546.88 939.28,-544.34 939.94,-551.3"/>
<text text-anchor="middle" x="684" y="-542.3" font-family="Times,serif" font-size="14.00">[a&#45;ru&#45;zA&#45;Z0&#45;9]</text>
</g>
<!-- 7 -->
<g id="node7" class="node">
<title>7</title>
<ellipse fill="none" stroke="black" cx="584" cy="-444.5" rx="18" ry="18"/>
<ellipse fill="none" stroke="black" cx="584" cy="-444.5" rx="22" ry="22"/>
<text text-anchor="middle" x="584" y="-440.8" font-family="Times,serif" font-size="14.00">7</text>
<text text-anchor="middle" x="541.5" y="-411.3" font-family="Times,serif" font-size="14.00">IDENT</text>
</g>
<!-- 5&#45;&gt;7 -->
<g id="edge17" class="edge">
<title>5&#45;&gt;7</title>
<path fill="none" stroke="black" d="M412.62,-373.66C446.27,-387.65 515.14,-416.28 554.23,-432.54"/>
<polygon fill="black" stroke="black" points="552.91,-435.78 563.49,-436.39 555.6,-429.31 552.91,-435.78"/>
<text text-anchor="middle" x="483.5" y="-422.3" font-family="Times,serif" font-size="14.00">s</text>
</g>
<!-- 6 -->
<g id="node8" class="node">
<title>6</title>
<ellipse fill="none" stroke="black" cx="784.5" cy="-365.5" rx="18" ry="18"/>
<ellipse fill="none" stroke="black" cx="784.5" cy="-365.5" rx="22" ry="22"/>
<text text-anchor="middle" x="784.5" y="-361.8" font-family="Times,serif" font-size="14.00">6</text>
<text text-anchor="middle" x="747" y="-347.3" font-family="Times,serif" font-size="14.00">EXIT</text>
</g>
<!-- 5&#45;&gt;6 -->
<g id="edge16" class="edge">
<title>5&#45;&gt;6</title>
<path fill="none" stroke="black" d="M414.27,-365.5C479.2,-365.5 675.06,-365.5 751.99,-365.5"/>
<polygon fill="black" stroke="black" points="752.45,-369 762.45,-365.5 752.45,-362 752.45,-369"/>
<text text-anchor="middle" x="584" y="-369.3" font-family="Times,serif" font-size="14.00">t</text>
</g>
<!-- 5&#45;&gt;T -->
<g id="edge18" class="edge">
<title>5&#45;&gt;T</title>
<path fill="none" stroke="black" d="M413.87,-362.47C468.08,-354.66 617.83,-333.48 743,-319.5 879.41,-304.26 1043.12,-290.72 1106.8,-285.64"/>
<polygon fill="black" stroke="black" points="1107.13,-289.12 1116.83,-284.84 1106.58,-282.14 1107.13,-289.12"/>
<text text-anchor="middle" x="784.5" y="-323.3" font-family="Times,serif" font-size="14.00">[^a&#45;zA&#45;Z0&#45;9]</text>
</g>
<!-- 7&#45;&gt;2 -->
<g id="edge21" class="edge">
<title>7&#45;&gt;2</title>
<path fill="none" stroke="black" d="M602.57,-456.44C613.71,-463.51 628.69,-472.12 643,-477.5 747.58,-516.81 880.08,-534.89 939.36,-541.43"/>
<polygon fill="black" stroke="black" points="939.24,-544.94 949.56,-542.52 939.99,-537.98 939.24,-544.94"/>
<text text-anchor="middle" x="784.5" y="-528.3" font-family="Times,serif" font-size="14.00">[a&#45;su&#45;zA&#45;Z0&#45;9]</text>
</g>
<!-- 8 -->
<g id="node9" class="node">
<title>8</title>
<ellipse fill="none" stroke="black" cx="784.5" cy="-465.5" rx="18" ry="18"/>
<ellipse fill="none" stroke="black" cx="784.5" cy="-465.5" rx="22" ry="22"/>
<text text-anchor="middle" x="784.5" y="-461.8" font-family="Times,serif" font-size="14.00">8</text>
<text text-anchor="middle" x="743" y="-432.3" font-family="Times,serif" font-size="14.00">EXIST</text>
</g>
<!-- 7&#45;&gt;8 -->
<g id="edge22" class="edge">
<title>7&#45;&gt;8</title>
<path fill="none" stroke="black" d="M606.24,-446.75C641.31,-450.46 711.49,-457.88 752.24,-462.19"/>
<polygon fill="black" stroke="black" points="752.1,-465.7 762.41,-463.27 752.83,-458.73 752.1,-465.7"/>
<text text-anchor="middle" x="684" y="-462.3" font-family="Times,serif" font-size="14.00">t</text>
</g>
<!-- 7&#45;&gt;T -->
<g id="edge23" class="edge">
<title>7&#45;&gt;T</title>
<path fill="none" stroke="black" d="M606.1,-442.51C692.5,-434.01 1018.46,-398.36 1099,-337.5 1108.83,-330.07 1116.68,-319.03 1122.44,-308.86"/>
<polygon fill="black" stroke="black" points="1125.6,-310.38 1127.13,-299.89 1119.39,-307.13 1125.6,-310.38"/>
<text text-anchor="middle" x="880.5" y="-414.3" font-family="Times,serif" font-size="14.00">[^a&#45;zA&#45;Z0&#45;9]</text>
</g>
<!-- 6&#45;&gt;2 -->
<g id="edge19" class="edge">
<title>6&#45;&gt;2</title>
<path fill="none" stroke="black" d="M806.34,-360.66C835.16,-355.32 887.02,-350.77 917,-378.5 950.47,-409.46 919.87,-436.48 935,-479.5 939.64,-492.71 946.76,-506.44 953.41,-517.86"/>
<polygon fill="black" stroke="black" points="950.43,-519.7 958.58,-526.47 956.43,-516.09 950.43,-519.7"/>
<text text-anchor="middle" x="880.5" y="-382.3" font-family="Times,serif" font-size="14.00">[a&#45;zA&#45;Z0&#45;9]</text>
</g>
<!-- 6&#45;&gt;T -->
<g id="edge20" class="edge">
<title>6&#45;&gt;T</title>
<path fill="none" stroke="black" d="M806.37,-362.96C872.18,-354.87 1072.6,-329.43 1099,-316.5 1105.1,-313.51 1110.86,-309.09 1115.88,-304.44"/>
<polygon fill="black" stroke="black" points="1118.56,-306.71 1123.1,-297.14 1113.58,-301.79 1118.56,-306.71"/>
<text text-anchor="middle" x="971.5" y="-349.3" font-family="Times,serif" font-size="14.00">[^a&#45;zA&#45;Z0&#45;9]</text>
</g>
<!-- 8&#45;&gt;2 -->
<g id="edge24" class="edge">
<title>8&#45;&gt;2</title>
<path fill="none" stroke="black" d="M806.72,-466.73C833.74,-469.04 881.21,-475.67 917,-494.5 929.25,-500.94 940.76,-510.95 949.94,-520.33"/>
<polygon fill="black" stroke="black" points="947.39,-522.72 956.77,-527.63 952.5,-517.94 947.39,-522.72"/>
<text text-anchor="middle" x="880.5" y="-498.3" font-family="Times,serif" font-size="14.00">[a&#45;zA&#45;Z0&#45;9]</text>
</g>
<!-- 8&#45;&gt;T -->
<g id="edge25" class="edge">
<title>8&#45;&gt;T</title>
<path fill="none" stroke="black" d="M806.7,-466.02C869.95,-467.13 1055.65,-466.96 1099,-428.5 1116.19,-413.25 1126.37,-349.45 1130.99,-311.75"/>
<polygon fill="black" stroke="black" points="1134.52,-311.76 1132.2,-301.42 1127.56,-310.94 1134.52,-311.76"/>
<text text-anchor="middle" x="971.5" y="-467.3" font-family="Times,serif" font-size="14.00">[^a&#45;zA&#45;Z0&#45;9]</text>
</g>
<!-- 9&#45;&gt;9 -->
<g id="edge27" class="edge">
<title>9&#45;&gt;9</title>
<path fill="none" stroke="black" d="M308.93,-194.84C306.87,-205.6 310.55,-215.5 320,-215.5 326.2,-215.5 329.92,-211.23 331.16,-205.26"/>
<polygon fill="black" stroke="black" points="334.66,-204.81 331.07,-194.84 327.66,-204.87 334.66,-204.81"/>
<text text-anchor="middle" x="320" y="-219.3" font-family="Times,serif" font-size="14.00">[0&#45;9]</text>
</g>
<!-- 9&#45;&gt;T -->
<g id="edge28" class="edge">
<title>9&#45;&gt;T</title>
<path fill="none" stroke="black" d="M342.2,-175.24C460.3,-173.96 1034.11,-169.97 1099,-212.5 1113.99,-222.32 1122.79,-240.57 1127.82,-256.1"/>
<polygon fill="black" stroke="black" points="1124.48,-257.16 1130.6,-265.8 1131.21,-255.22 1124.48,-257.16"/>
<text text-anchor="middle" x="684" y="-180.3" font-family="Times,serif" font-size="14.00">[^0&#45;9]</text>
</g>
<!-- 10&#45;&gt;T -->
<g id="edge30" class="edge">
<title>10&#45;&gt;T</title>
<path fill="none" stroke="black" d="M507.12,-143.87C543.97,-144.45 619.24,-145.5 683,-145.5 683,-145.5 683,-145.5 972.5,-145.5 1030.18,-145.5 1056.51,-135.49 1099,-174.5 1121.57,-195.22 1129.65,-230.52 1132.51,-255.32"/>
<polygon fill="black" stroke="black" points="1129.05,-255.93 1133.46,-265.56 1136.02,-255.28 1129.05,-255.93"/>
<text text-anchor="middle" x="784.5" y="-149.3" font-family="Times,serif" font-size="14.00">∀</text>
</g>
<!-- 12 -->
<g id="node12" class="node">
<title>12</title>
<ellipse fill="none" stroke="black" cx="684" cy="-51.5" rx="19.5" ry="19.5"/>
<ellipse fill="none" stroke="black" cx="684" cy="-51.5" rx="23.5" ry="23.5"/>
<text text-anchor="middle" x="684" y="-47.8" font-family="Times,serif" font-size="14.00">12</text>
<text text-anchor="middle" x="625" y="-16.8" font-family="Times,serif" font-size="14.00">COMMENT</text>
</g>
<!-- 12&#45;&gt;T -->
<g id="edge34" class="edge">
<title>12&#45;&gt;T</title>
<path fill="none" stroke="black" d="M706.99,-45.17C775.25,-26.99 985.73,17.73 1099,-85.5 1123.47,-107.8 1130.89,-205.73 1133.1,-254.99"/>
<polygon fill="black" stroke="black" points="1129.61,-255.43 1133.51,-265.28 1136.61,-255.14 1129.61,-255.43"/>
<text text-anchor="middle" x="880.5" y="-24.3" font-family="Times,serif" font-size="14.00">∀</text>
</g>
<!-- T&#45;&gt;T -->
<g id="edge4" class="edge">
<title>T&#45;&gt;T</title>
<path fill="none" stroke="black" d="M1123.24,-297.54C1118.85,-308.41 1122.77,-319.5 1135,-319.5 1143.41,-319.5 1147.89,-314.26 1148.44,-307.45"/>
<polygon fill="black" stroke="black" points="1151.88,-306.81 1146.76,-297.54 1144.98,-307.99 1151.88,-306.81"/>
<text text-anchor="middle" x="1135" y="-323.3" font-family="Times,serif" font-size="14.00">∀</text>
</g>
<!-- 11&#45;&gt;12 -->
<g id="edge33" class="edge">
<title>11&#45;&gt;12</title>
<path fill="none" stroke="black" d="M153.56,-22.22C177.43,-25.47 220.21,-30.5 257,-30.5 257,-30.5 257,-30.5 484.5,-30.5 543.38,-30.5 611.55,-39.75 650.74,-45.97"/>
<polygon fill="black" stroke="black" points="650.32,-49.45 660.75,-47.6 651.44,-42.54 650.32,-49.45"/>
<text text-anchor="middle" x="320" y="-34.3" font-family="Times,serif" font-size="14.00">\n</text>
</g>
<!-- 11&#45;&gt;11 -->
<g id="edge32" class="edge">
<title>11&#45;&gt;11</title>
<path fill="none" stroke="black" d="M123.64,-36.08C120.94,-46.74 124.39,-57 134,-57 140.46,-57 144.13,-52.37 145.03,-46.09"/>
<polygon fill="black" stroke="black" points="148.52,-45.82 144.36,-36.08 141.54,-46.29 148.52,-45.82"/>
<text text-anchor="middle" x="134" y="-60.8" font-family="Times,serif" font-size="14.00">[^\n]</text>
</g>
</g>
</svg>
