<?xml version="1.0" encoding="UTF-8" standalone="no"?>
<!DOCTYPE svg PUBLIC "-//W3C//DTD SVG 1.1//EN"
 "http://www.w3.org/Graphics/SVG/1.1/DTD/svg11.dtd">
<!-- Generated by graphviz version 2.43.0 (0)
 -->
<!-- Title: deterministic Pages: 1 -->
<svg width="1180pt" height="877pt"
 viewBox="0.00 0.00 1179.79 877.30" xmlns="http://www.w3.org/2000/svg" xmlns:xlink="http://www.w3.org/1999/xlink">
<g id="graph0" class="graph" transform="scale(1 1) rotate(0) translate(4 873.3)">
<title>deterministic</title>
<polygon fill="white" stroke="transparent" points="-4,4 -4,-873.3 1175.79,-873.3 1175.79,4 -4,4"/>
<!-- S -->
<g id="node1" class="node">
<title>S</title>
<ellipse fill="none" stroke="black" stroke-width="2" cx="18" cy="-528.8" rx="18" ry="18"/>
<text text-anchor="middle" x="18" y="-525.1" font-family="Times,serif" font-size="14.00">S</text>
</g>
<!-- W -->
<g id="node2" class="node">
<title>W</title>
<ellipse fill="none" stroke="black" cx="204.39" cy="-812.8" rx="19.5" ry="19.5"/>
<ellipse fill="none" stroke="black" cx="204.39" cy="-812.8" rx="23.5" ry="23.5"/>
<text text-anchor="middle" x="204.39" y="-809.1" font-family="Times,serif" font-size="14.00">W</text>
<text text-anchor="middle" x="137.4" y="-778.1" font-family="Times,serif" font-size="14.00">WHITESPACE</text>
</g>
<!-- S&#45;&gt;W -->
<g id="edge1" class="edge">
<title>S&#45;&gt;W</title>
<path fill="none" stroke="black" d="M18.84,-546.94C18.77,-599.55 21.45,-750.6 54,-784.8 83.71,-816.02 136.32,-818.8 170.52,-816.72"/>
<polygon fill="black" stroke="black" points="171.22,-820.18 180.92,-815.9 170.68,-813.2 171.22,-820.18"/>
<text text-anchor="middle" x="74" y="-811.6" font-family="Times,serif" font-size="14.00">[ \t\r\n]</text>
</g>
<!-- I -->
<g id="node3" class="node">
<title>I</title>
<ellipse fill="none" stroke="black" cx="990.29" cy="-593.8" rx="18" ry="18"/>
<ellipse fill="none" stroke="black" cx="990.29" cy="-593.8" rx="22" ry="22"/>
<text text-anchor="middle" x="990.29" y="-590.1" font-family="Times,serif" font-size="14.00">I</text>
<text text-anchor="middle" x="930.79" y="-560.6" font-family="Times,serif" font-size="14.00">IDENTIFIER</text>
</g>
<!-- S&#45;&gt;I -->
<g id="edge5" class="edge">
<title>S&#45;&gt;I</title>
<path fill="none" stroke="black" d="M19.41,-546.99C21.73,-603.27 36.98,-770.8 136.45,-770.8 136.45,-770.8 136.45,-770.8 804.29,-770.8 888.85,-770.8 949.9,-673.05 975.68,-622.84"/>
<polygon fill="black" stroke="black" points="978.88,-624.27 980.22,-613.76 972.62,-621.14 978.88,-624.27"/>
<text text-anchor="middle" x="408.79" y="-774.6" font-family="Times,serif" font-size="14.00">[a&#45;df&#45;zA&#45;Z]</text>
</g>
<!-- N -->
<g id="node4" class="node">
<title>N</title>
<ellipse fill="none" stroke="black" cx="336.79" cy="-700.8" rx="18" ry="18"/>
<ellipse fill="none" stroke="black" cx="336.79" cy="-700.8" rx="22" ry="22"/>
<text text-anchor="middle" x="336.79" y="-697.1" font-family="Times,serif" font-size="14.00">N</text>
<text text-anchor="middle" x="285.29" y="-667.6" font-family="Times,serif" font-size="14.00">NUMBER</text>
</g>
<!-- S&#45;&gt;N -->
<g id="edge26" class="edge">
<title>S&#45;&gt;N</title>
<path fill="none" stroke="black" d="M29.66,-543.26C53.13,-573.89 112.65,-645.19 180.9,-677.8 220.57,-696.75 271.93,-700.94 304.38,-701.45"/>
<polygon fill="black" stroke="black" points="304.6,-704.95 314.61,-701.5 304.63,-697.95 304.6,-704.95"/>
<text text-anchor="middle" x="137.45" y="-670.6" font-family="Times,serif" font-size="14.00">[0&#45;9]</text>
</g>
<!-- K1 -->
<g id="node5" class="node">
<title>K1</title>
<ellipse fill="none" stroke="black" cx="137.45" cy="-528.8" rx="21.4" ry="21.4"/>
<ellipse fill="none" stroke="black" cx="137.45" cy="-528.8" rx="25.4" ry="25.4"/>
<text text-anchor="middle" x="137.45" y="-525.1" font-family="Times,serif" font-size="14.00">K1</text>
<text text-anchor="middle" x="74.5" y="-492.15" font-family="Times,serif" font-size="14.00">IDENTIFIER</text>
</g>
<!-- S&#45;&gt;K1 -->
<g id="edge8" class="edge">
<title>S&#45;&gt;K1</title>
<path fill="none" stroke="black" d="M36.08,-528.8C53.25,-528.8 80.2,-528.8 101.85,-528.8"/>
<polygon fill="black" stroke="black" points="101.99,-532.3 111.99,-528.8 101.99,-525.3 101.99,-532.3"/>
<text text-anchor="middle" x="74" y="-532.6" font-family="Times,serif" font-size="14.00">e</text>
</g>
<!-- O1 -->
<g id="node12" class="node">
<title>O1</title>
<ellipse fill="none" stroke="black" cx="803.29" cy="-200.8" rx="21.4" ry="21.4"/>
<ellipse fill="none" stroke="black" cx="803.29" cy="-200.8" rx="25.4" ry="25.4"/>
<text text-anchor="middle" x="803.29" y="-197.1" font-family="Times,serif" font-size="14.00">O1</text>
<text text-anchor="middle" x="753.34" y="-164.15" font-family="Times,serif" font-size="14.00">EXLAM</text>
</g>
<!-- S&#45;&gt;O1 -->
<g id="edge33" class="edge">
<title>S&#45;&gt;O1</title>
<path fill="none" stroke="black" d="M21.48,-510.92C31.38,-442.99 70.78,-204.8 136.45,-204.8 136.45,-204.8 136.45,-204.8 603.79,-204.8 661.25,-204.8 728.06,-203.1 767.66,-201.92"/>
<polygon fill="black" stroke="black" points="767.96,-205.41 777.84,-201.61 767.74,-198.41 767.96,-205.41"/>
<text text-anchor="middle" x="336.79" y="-208.6" font-family="Times,serif" font-size="14.00">!</text>
</g>
<!-- T -->
<g id="node14" class="node">
<title>T</title>
<ellipse fill="none" stroke="black" cx="1153.79" cy="-337.8" rx="18" ry="18"/>
<text text-anchor="middle" x="1153.79" y="-334.1" font-family="Times,serif" font-size="14.00">T</text>
</g>
<!-- S&#45;&gt;T -->
<g id="edge37" class="edge">
<title>S&#45;&gt;T</title>
<path fill="none" stroke="black" d="M18.63,-510.69C18.24,-464.4 20.57,-338.49 54,-240.8 77.13,-173.2 65,-102.8 136.45,-102.8 136.45,-102.8 136.45,-102.8 991.29,-102.8 1052.6,-102.8 1079.41,-109.99 1117.79,-157.8 1136.29,-180.85 1146.37,-265.16 1150.51,-309.74"/>
<polygon fill="black" stroke="black" points="1147.04,-310.25 1151.41,-319.9 1154.01,-309.63 1147.04,-310.25"/>
<text text-anchor="middle" x="501.29" y="-106.6" font-family="Times,serif" font-size="14.00">[^a&#45;zA&#45;Z0&#45;9!~]</text>
</g>
<!-- C1 -->
<g id="node15" class="node">
<title>C1</title>
<ellipse fill="none" stroke="black" cx="137.45" cy="-20.8" rx="20.6" ry="20.6"/>
<text text-anchor="middle" x="137.45" y="-17.1" font-family="Times,serif" font-size="14.00">C1</text>
</g>
<!-- S&#45;&gt;C1 -->
<g id="edge29" class="edge">
<title>S&#45;&gt;C1</title>
<path fill="none" stroke="black" d="M19.45,-510.77C21.54,-430.97 31.29,-111.85 54,-73.8 66.11,-53.52 89.32,-39.65 108.04,-31.2"/>
<polygon fill="black" stroke="black" points="109.49,-34.39 117.34,-27.27 106.77,-27.94 109.49,-34.39"/>
<text text-anchor="middle" x="74" y="-77.6" font-family="Times,serif" font-size="14.00">~</text>
</g>
<!-- W&#45;&gt;W -->
<g id="edge2" class="edge">
<title>W&#45;&gt;W</title>
<path fill="none" stroke="black" d="M192.53,-833.3C190.51,-844.28 194.47,-854.3 204.39,-854.3 211.06,-854.3 215.04,-849.78 216.31,-843.48"/>
<polygon fill="black" stroke="black" points="219.81,-843.28 216.26,-833.3 212.81,-843.31 219.81,-843.28"/>
<text text-anchor="middle" x="204.39" y="-858.1" font-family="Times,serif" font-size="14.00">[ \t\r\n]</text>
</g>
<!-- W&#45;&gt;T -->
<g id="edge3" class="edge">
<title>W&#45;&gt;T</title>
<path fill="none" stroke="black" d="M228,-813.91C254,-815.1 297.97,-816.8 335.79,-816.8 335.79,-816.8 335.79,-816.8 991.29,-816.8 1075.81,-816.8 1083.66,-752.12 1117.79,-674.8 1142.08,-619.76 1149.9,-437.51 1152.06,-366.49"/>
<polygon fill="black" stroke="black" points="1155.57,-366.18 1152.36,-356.08 1148.57,-365.97 1155.57,-366.18"/>
<text text-anchor="middle" x="602.79" y="-820.6" font-family="Times,serif" font-size="14.00">[^ \t\r\n]</text>
</g>
<!-- I&#45;&gt;I -->
<g id="edge6" class="edge">
<title>I&#45;&gt;I</title>
<path fill="none" stroke="black" d="M975.23,-610.23C970.33,-622.04 975.35,-633.8 990.29,-633.8 1000.91,-633.8 1006.52,-627.85 1007.11,-620.18"/>
<polygon fill="black" stroke="black" points="1010.54,-619.47 1005.35,-610.23 1003.65,-620.69 1010.54,-619.47"/>
<text text-anchor="middle" x="990.29" y="-637.6" font-family="Times,serif" font-size="14.00">[a&#45;zA&#45;Z0&#45;9]</text>
</g>
<!-- I&#45;&gt;T -->
<g id="edge7" class="edge">
<title>I&#45;&gt;T</title>
<path fill="none" stroke="black" d="M1012.5,-591.01C1041.13,-586.07 1091.56,-572.94 1117.79,-539.8 1138.73,-513.33 1147.85,-415.21 1151.18,-366.13"/>
<polygon fill="black" stroke="black" points="1154.68,-366.1 1151.83,-355.89 1147.7,-365.65 1154.68,-366.1"/>
<text text-anchor="middle" x="1081.29" y="-586.6" font-family="Times,serif" font-size="14.00">[^a&#45;zA&#45;Z0&#45;9]</text>
</g>
<!-- N&#45;&gt;N -->
<g id="edge27" class="edge">
<title>N&#45;&gt;N</title>
<path fill="none" stroke="black" d="M325.45,-719.73C323.13,-730.64 326.91,-740.8 336.79,-740.8 343.42,-740.8 347.31,-736.21 348.44,-729.89"/>
<polygon fill="black" stroke="black" points="351.93,-729.62 348.13,-719.73 344.94,-729.83 351.93,-729.62"/>
<text text-anchor="middle" x="336.79" y="-744.6" font-family="Times,serif" font-size="14.00">[0&#45;9]</text>
</g>
<!-- N&#45;&gt;T -->
<g id="edge28" class="edge">
<title>N&#45;&gt;T</title>
<path fill="none" stroke="black" d="M358.48,-704.78C389.26,-710.35 449.02,-719.8 500.29,-719.8 500.29,-719.8 500.29,-719.8 991.29,-719.8 1144.91,-719.8 1154.65,-454.48 1153.63,-366.07"/>
<polygon fill="black" stroke="black" points="1157.12,-365.9 1153.45,-355.97 1150.12,-366.02 1157.12,-365.9"/>
<text text-anchor="middle" x="702.79" y="-723.6" font-family="Times,serif" font-size="14.00">[^0&#45;9]</text>
</g>
<!-- K1&#45;&gt;I -->
<g id="edge9" class="edge">
<title>K1&#45;&gt;I</title>
<path fill="none" stroke="black" d="M160.59,-539.69C167.04,-542.59 174.16,-545.54 180.9,-547.8 209,-557.23 216.89,-556.65 245.89,-562.8 385.78,-592.44 419.45,-610.18 561.79,-623.8 598.07,-627.27 607.34,-623.92 643.79,-623.8 773.57,-623.35 809.87,-653.22 935.79,-621.8 944.95,-619.51 954.29,-615.37 962.55,-610.95"/>
<polygon fill="black" stroke="black" points="964.39,-613.94 971.35,-605.94 960.92,-607.85 964.39,-613.94"/>
<text text-anchor="middle" x="501.29" y="-625.6" font-family="Times,serif" font-size="14.00">[a&#45;wyzA&#45;Z0&#45;9]</text>
</g>
<!-- K2 -->
<g id="node6" class="node">
<title>K2</title>
<ellipse fill="none" stroke="black" cx="271.34" cy="-528.8" rx="21.4" ry="21.4"/>
<ellipse fill="none" stroke="black" cx="271.34" cy="-528.8" rx="25.4" ry="25.4"/>
<text text-anchor="middle" x="271.34" y="-525.1" font-family="Times,serif" font-size="14.00">K2</text>
<text text-anchor="middle" x="208.39" y="-492.15" font-family="Times,serif" font-size="14.00">IDENTIFIER</text>
</g>
<!-- K1&#45;&gt;K2 -->
<g id="edge10" class="edge">
<title>K1&#45;&gt;K2</title>
<path fill="none" stroke="black" d="M162.95,-528.8C183.27,-528.8 212.42,-528.8 235.23,-528.8"/>
<polygon fill="black" stroke="black" points="235.53,-532.3 245.53,-528.8 235.53,-525.3 235.53,-532.3"/>
<text text-anchor="middle" x="204.39" y="-532.6" font-family="Times,serif" font-size="14.00">x</text>
</g>
<!-- K1&#45;&gt;T -->
<g id="edge11" class="edge">
<title>K1&#45;&gt;T</title>
<path fill="none" stroke="black" d="M139.03,-502.93C142.06,-434.47 160.47,-253.8 270.34,-253.8 270.34,-253.8 270.34,-253.8 703.79,-253.8 848.33,-253.8 883.66,-271.59 1026.79,-291.8 1067.38,-297.53 1080.78,-289.19 1117.79,-306.8 1123.52,-309.52 1129.01,-313.47 1133.88,-317.65"/>
<polygon fill="black" stroke="black" points="1131.72,-320.42 1141.41,-324.71 1136.51,-315.31 1131.72,-320.42"/>
<text text-anchor="middle" x="602.79" y="-257.6" font-family="Times,serif" font-size="14.00">[^a&#45;zA&#45;Z0&#45;9]</text>
</g>
<!-- K2&#45;&gt;I -->
<g id="edge12" class="edge">
<title>K2&#45;&gt;I</title>
<path fill="none" stroke="black" d="M294.5,-539.64C300.95,-542.54 308.07,-545.5 314.79,-547.8 341.62,-556.96 348.98,-557.3 376.79,-562.8 502.52,-587.67 534,-596.99 661.79,-606.8 698.13,-609.59 707.34,-606.89 743.79,-606.8 829.12,-606.58 851,-615.41 935.79,-605.8 943.4,-604.94 951.51,-603.43 959.05,-601.77"/>
<polygon fill="black" stroke="black" points="959.95,-605.15 968.89,-599.46 958.35,-598.34 959.95,-605.15"/>
<text text-anchor="middle" x="602.79" y="-608.6" font-family="Times,serif" font-size="14.00">[a&#45;hj&#45;zA&#45;Z0&#45;9]</text>
</g>
<!-- K3 -->
<g id="node7" class="node">
<title>K3</title>
<ellipse fill="none" stroke="black" cx="408.79" cy="-528.8" rx="21.4" ry="21.4"/>
<ellipse fill="none" stroke="black" cx="408.79" cy="-528.8" rx="25.4" ry="25.4"/>
<text text-anchor="middle" x="408.79" y="-525.1" font-family="Times,serif" font-size="14.00">K3</text>
<text text-anchor="middle" x="345.84" y="-492.15" font-family="Times,serif" font-size="14.00">IDENTIFIER</text>
</g>
<!-- K2&#45;&gt;K3 -->
<g id="edge13" class="edge">
<title>K2&#45;&gt;K3</title>
<path fill="none" stroke="black" d="M296.87,-528.8C318.12,-528.8 349.11,-528.8 372.93,-528.8"/>
<polygon fill="black" stroke="black" points="372.99,-532.3 382.99,-528.8 372.99,-525.3 372.99,-532.3"/>
<text text-anchor="middle" x="336.79" y="-532.6" font-family="Times,serif" font-size="14.00">i</text>
</g>
<!-- K2&#45;&gt;T -->
<g id="edge14" class="edge">
<title>K2&#45;&gt;T</title>
<path fill="none" stroke="black" d="M286.94,-508.61C315.4,-470.88 382.26,-389.85 458.79,-349.8 691.36,-228.08 1030.63,-304.82 1126.62,-330.4"/>
<polygon fill="black" stroke="black" points="1125.8,-333.81 1136.37,-333.05 1127.64,-327.05 1125.8,-333.81"/>
<text text-anchor="middle" x="702.79" y="-293.6" font-family="Times,serif" font-size="14.00">[^a&#45;zA&#45;Z0&#45;9]</text>
</g>
<!-- K3&#45;&gt;I -->
<g id="edge15" class="edge">
<title>K3&#45;&gt;I</title>
<path fill="none" stroke="black" d="M432.35,-538.86C440.53,-542.16 449.95,-545.55 458.79,-547.8 633.84,-592.3 682.27,-585.9 862.79,-591.8 895.25,-592.86 932.42,-593.36 958.03,-593.6"/>
<polygon fill="black" stroke="black" points="958.21,-597.1 968.24,-593.68 958.27,-590.1 958.21,-597.1"/>
<text text-anchor="middle" x="702.79" y="-591.6" font-family="Times,serif" font-size="14.00">[a&#45;ru&#45;zA&#45;Z0&#45;9]</text>
</g>
<!-- K4 -->
<g id="node8" class="node">
<title>K4</title>
<ellipse fill="none" stroke="black" cx="803.29" cy="-552.8" rx="21.4" ry="21.4"/>
<ellipse fill="none" stroke="black" cx="803.29" cy="-552.8" rx="25.4" ry="25.4"/>
<text text-anchor="middle" x="803.29" y="-549.1" font-family="Times,serif" font-size="14.00">K4</text>
<text text-anchor="middle" x="762.34" y="-531.15" font-family="Times,serif" font-size="14.00">EXIT</text>
</g>
<!-- K3&#45;&gt;K4 -->
<g id="edge16" class="edge">
<title>K3&#45;&gt;K4</title>
<path fill="none" stroke="black" d="M434.34,-530.3C501.66,-534.42 689.35,-545.89 767.47,-550.67"/>
<polygon fill="black" stroke="black" points="767.55,-554.18 777.75,-551.3 767.98,-547.19 767.55,-554.18"/>
<text text-anchor="middle" x="602.79" y="-545.6" font-family="Times,serif" font-size="14.00">t</text>
</g>
<!-- K5 -->
<g id="node9" class="node">
<title>K5</title>
<ellipse fill="none" stroke="black" cx="602.79" cy="-459.8" rx="21.4" ry="21.4"/>
<ellipse fill="none" stroke="black" cx="602.79" cy="-459.8" rx="25.4" ry="25.4"/>
<text text-anchor="middle" x="602.79" y="-456.1" font-family="Times,serif" font-size="14.00">K5</text>
<text text-anchor="middle" x="539.84" y="-423.15" font-family="Times,serif" font-size="14.00">IDENTIFIER</text>
</g>
<!-- K3&#45;&gt;K5 -->
<g id="edge17" class="edge">
<title>K3&#45;&gt;K5</title>
<path fill="none" stroke="black" d="M431.97,-517.65C440.28,-513.67 449.87,-509.31 458.79,-505.8 495.69,-491.27 539.21,-477.77 568.47,-469.2"/>
<polygon fill="black" stroke="black" points="569.55,-472.53 578.18,-466.39 567.6,-465.81 569.55,-472.53"/>
<text text-anchor="middle" x="501.29" y="-509.6" font-family="Times,serif" font-size="14.00">s</text>
</g>
<!-- K3&#45;&gt;T -->
<g id="edge18" class="edge">
<title>K3&#45;&gt;T</title>
<path fill="none" stroke="black" d="M419.66,-505.76C443.14,-454.96 507.52,-337.8 601.79,-337.8 601.79,-337.8 601.79,-337.8 991.29,-337.8 1038.19,-337.8 1092.75,-337.8 1124.94,-337.8"/>
<polygon fill="black" stroke="black" points="1125.34,-341.3 1135.34,-337.8 1125.34,-334.3 1125.34,-341.3"/>
<text text-anchor="middle" x="803.29" y="-341.6" font-family="Times,serif" font-size="14.00">[^a&#45;zA&#45;Z0&#45;9]</text>
</g>
<!-- K4&#45;&gt;I -->
<g id="edge19" class="edge">
<title>K4&#45;&gt;I</title>
<path fill="none" stroke="black" d="M828.72,-556.31C855.28,-560.34 898.86,-567.6 935.79,-576.8 943.61,-578.75 951.97,-581.21 959.7,-583.66"/>
<polygon fill="black" stroke="black" points="958.8,-587.04 969.39,-586.81 960.97,-580.39 958.8,-587.04"/>
<text text-anchor="middle" x="899.29" y="-580.6" font-family="Times,serif" font-size="14.00">[a&#45;zA&#45;Z0&#45;9]</text>
</g>
<!-- K4&#45;&gt;T -->
<g id="edge20" class="edge">
<title>K4&#45;&gt;T</title>
<path fill="none" stroke="black" d="M828.52,-548.77C886.14,-538 1032.87,-503.39 1117.79,-418.8 1132.35,-404.29 1141.26,-382.75 1146.45,-365.52"/>
<polygon fill="black" stroke="black" points="1149.94,-366.03 1149.21,-355.46 1143.19,-364.17 1149.94,-366.03"/>
<text text-anchor="middle" x="990.29" y="-517.6" font-family="Times,serif" font-size="14.00">[^a&#45;zA&#45;Z0&#45;9]</text>
</g>
<!-- K5&#45;&gt;I -->
<g id="edge21" class="edge">
<title>K5&#45;&gt;I</title>
<path fill="none" stroke="black" d="M628.05,-464.45C638.44,-466.43 650.7,-468.75 661.79,-470.8 743.06,-485.83 767.35,-474.92 844.79,-503.8 890.27,-520.76 936.86,-553 964.43,-573.93"/>
<polygon fill="black" stroke="black" points="962.62,-576.96 972.68,-580.3 966.9,-571.42 962.62,-576.96"/>
<text text-anchor="middle" x="803.29" y="-507.6" font-family="Times,serif" font-size="14.00">[a&#45;su&#45;zA&#45;Z0&#45;9]</text>
</g>
<!-- K6 -->
<g id="node10" class="node">
<title>K6</title>
<ellipse fill="none" stroke="black" cx="803.29" cy="-433.8" rx="21.4" ry="21.4"/>
<ellipse fill="none" stroke="black" cx="803.29" cy="-433.8" rx="25.4" ry="25.4"/>
<text text-anchor="middle" x="803.29" y="-430.1" font-family="Times,serif" font-size="14.00">K6</text>
<text text-anchor="middle" x="758.34" y="-397.15" font-family="Times,serif" font-size="14.00">EXIST</text>
</g>
<!-- K5&#45;&gt;K6 -->
<g id="edge22" class="edge">
<title>K5&#45;&gt;K6</title>
<path fill="none" stroke="black" d="M628.13,-456.61C663.1,-452.03 727.74,-443.56 767.67,-438.33"/>
<polygon fill="black" stroke="black" points="768.29,-441.78 777.75,-437.01 767.38,-434.84 768.29,-441.78"/>
<text text-anchor="middle" x="702.79" y="-455.6" font-family="Times,serif" font-size="14.00">t</text>
</g>
<!-- K5&#45;&gt;T -->
<g id="edge23" class="edge">
<title>K5&#45;&gt;T</title>
<path fill="none" stroke="black" d="M626.27,-449.31C656.43,-435.69 711.96,-412.21 761.79,-399.8 916.71,-361.2 963.39,-392.42 1117.79,-351.8 1121.02,-350.95 1124.35,-349.88 1127.61,-348.72"/>
<polygon fill="black" stroke="black" points="1128.98,-351.94 1137.04,-345.06 1126.45,-345.42 1128.98,-351.94"/>
<text text-anchor="middle" x="899.29" y="-384.6" font-family="Times,serif" font-size="14.00">[^a&#45;zA&#45;Z0&#45;9]</text>
</g>
<!-- K6&#45;&gt;I -->
<g id="edge24" class="edge">
<title>K6&#45;&gt;I</title>
<path fill="none" stroke="black" d="M828.82,-436.68C862.62,-441.14 921.03,-450.82 935.79,-465.8 961.06,-491.45 938.92,-512 953.79,-544.8 957.65,-553.33 963.13,-561.85 968.63,-569.35"/>
<polygon fill="black" stroke="black" points="966.12,-571.83 975,-577.61 971.66,-567.56 966.12,-571.83"/>
<text text-anchor="middle" x="899.29" y="-469.6" font-family="Times,serif" font-size="14.00">[a&#45;zA&#45;Z0&#45;9]</text>
</g>
<!-- K6&#45;&gt;T -->
<g id="edge25" class="edge">
<title>K6&#45;&gt;T</title>
<path fill="none" stroke="black" d="M829.1,-433.44C894.54,-432.06 1070.06,-425.52 1117.79,-394.8 1129.08,-387.53 1137.31,-375.2 1142.94,-363.86"/>
<polygon fill="black" stroke="black" points="1146.15,-365.26 1147.07,-354.71 1139.77,-362.38 1146.15,-365.26"/>
<text text-anchor="middle" x="990.29" y="-430.6" font-family="Times,serif" font-size="14.00">[^a&#45;zA&#45;Z0&#45;9]</text>
</g>
<!-- C2 -->
<g id="node11" class="node">
<title>C2</title>
<ellipse fill="none" stroke="black" cx="501.29" cy="-45.8" rx="20.63" ry="20.63"/>
<ellipse fill="none" stroke="black" cx="501.29" cy="-45.8" rx="24.6" ry="24.6"/>
<text text-anchor="middle" x="501.29" y="-42.1" font-family="Times,serif" font-size="14.00">C2</text>
<text text-anchor="middle" x="440.99" y="-9.8" font-family="Times,serif" font-size="14.00">COMMENT</text>
</g>
<!-- C2&#45;&gt;T -->
<g id="edge32" class="edge">
<title>C2&#45;&gt;T</title>
<path fill="none" stroke="black" d="M526.23,-47.18C563.67,-49.22 638.37,-52.8 701.79,-52.8 701.79,-52.8 701.79,-52.8 991.29,-52.8 1049.74,-52.8 1079.39,-44.72 1117.79,-88.8 1146.01,-121.19 1151.52,-250.95 1152.57,-309.22"/>
<polygon fill="black" stroke="black" points="1149.07,-309.6 1152.72,-319.55 1156.07,-309.5 1149.07,-309.6"/>
<text text-anchor="middle" x="803.29" y="-56.6" font-family="Times,serif" font-size="14.00">.</text>
</g>
<!-- O2 -->
<g id="node13" class="node">
<title>O2</title>
<ellipse fill="none" stroke="black" cx="990.29" cy="-206.8" rx="21.4" ry="21.4"/>
<ellipse fill="none" stroke="black" cx="990.29" cy="-206.8" rx="25.4" ry="25.4"/>
<text text-anchor="middle" x="990.29" y="-203.1" font-family="Times,serif" font-size="14.00">O2</text>
<text text-anchor="middle" x="916.34" y="-170.15" font-family="Times,serif" font-size="14.00">EXLAM_TILDA</text>
</g>
<!-- O1&#45;&gt;O2 -->
<g id="edge34" class="edge">
<title>O1&#45;&gt;O2</title>
<path fill="none" stroke="black" d="M828.86,-201.59C861.06,-202.64 917.75,-204.48 954.4,-205.67"/>
<polygon fill="black" stroke="black" points="954.51,-209.17 964.62,-206 954.74,-202.18 954.51,-209.17"/>
<text text-anchor="middle" x="899.29" y="-208.6" font-family="Times,serif" font-size="14.00">~</text>
</g>
<!-- O1&#45;&gt;T -->
<g id="edge35" class="edge">
<title>O1&#45;&gt;T</title>
<path fill="none" stroke="black" d="M826.8,-190.3C867.08,-172.88 954.04,-141.48 1026.79,-157.8 1070.44,-167.59 1089.32,-166.29 1117.79,-200.8 1143.39,-231.83 1150.56,-279.27 1152.4,-309.4"/>
<polygon fill="black" stroke="black" points="1148.91,-309.82 1152.86,-319.65 1155.91,-309.5 1148.91,-309.82"/>
<text text-anchor="middle" x="990.29" y="-161.6" font-family="Times,serif" font-size="14.00">[^~]</text>
</g>
<!-- O2&#45;&gt;T -->
<g id="edge36" class="edge">
<title>O2&#45;&gt;T</title>
<path fill="none" stroke="black" d="M1015.86,-204.57C1043.92,-203.42 1089.58,-206.01 1117.79,-230.8 1140.3,-250.58 1148.4,-285.04 1151.28,-309.51"/>
<polygon fill="black" stroke="black" points="1147.81,-310.01 1152.24,-319.63 1154.78,-309.35 1147.81,-310.01"/>
<text text-anchor="middle" x="1081.29" y="-234.6" font-family="Times,serif" font-size="14.00">.</text>
</g>
<!-- T&#45;&gt;T -->
<g id="edge4" class="edge">
<title>T&#45;&gt;T</title>
<path fill="none" stroke="black" d="M1142.03,-351.84C1137.64,-362.71 1141.55,-373.8 1153.79,-373.8 1162.2,-373.8 1166.68,-368.56 1167.23,-361.75"/>
<polygon fill="black" stroke="black" points="1170.67,-361.11 1165.55,-351.84 1163.77,-362.29 1170.67,-361.11"/>
<text text-anchor="middle" x="1153.79" y="-377.6" font-family="Times,serif" font-size="14.00">.</text>
</g>
<!-- C1&#45;&gt;C2 -->
<g id="edge31" class="edge">
<title>C1&#45;&gt;C2</title>
<path fill="none" stroke="black" d="M158.42,-22.18C217.44,-26.26 391.61,-38.29 465.99,-43.43"/>
<polygon fill="black" stroke="black" points="465.99,-46.94 476.21,-44.13 466.48,-39.95 465.99,-46.94"/>
<text text-anchor="middle" x="271.34" y="-35.6" font-family="Times,serif" font-size="14.00">\n</text>
</g>
<!-- C1&#45;&gt;C1 -->
<g id="edge30" class="edge">
<title>C1&#45;&gt;C1</title>
<path fill="none" stroke="black" d="M126.55,-38.76C124.13,-49.49 127.76,-59.6 137.45,-59.6 143.96,-59.6 147.73,-55.04 148.77,-48.79"/>
<polygon fill="black" stroke="black" points="152.27,-48.6 148.35,-38.76 145.28,-48.9 152.27,-48.6"/>
<text text-anchor="middle" x="137.45" y="-63.4" font-family="Times,serif" font-size="14.00">[^\n]</text>
</g>
</g>
</svg>
