<?xml version="1.0" encoding="UTF-8" standalone="no"?>
<!DOCTYPE svg PUBLIC "-//W3C//DTD SVG 1.1//EN"
 "http://www.w3.org/Graphics/SVG/1.1/DTD/svg11.dtd">
<!-- Generated by graphviz version 2.43.0 (0)
 -->
<!-- Title: deterministic Pages: 1 -->
<svg width="1202pt" height="913pt"
 viewBox="0.00 0.00 1201.79 913.30" xmlns="http://www.w3.org/2000/svg" xmlns:xlink="http://www.w3.org/1999/xlink">
<g id="graph0" class="graph" transform="scale(1 1) rotate(0) translate(4 909.3)">
<title>deterministic</title>
<polygon fill="white" stroke="transparent" points="-4,4 -4,-909.3 1197.79,-909.3 1197.79,4 -4,4"/>
<!-- S -->
<g id="node1" class="node">
<title>S</title>
<ellipse fill="none" stroke="black" stroke-width="2" cx="18" cy="-354.8" rx="18" ry="18"/>
<text text-anchor="middle" x="18" y="-351.1" font-family="Times,serif" font-size="14.00">S</text>
</g>
<!-- W -->
<g id="node2" class="node">
<title>W</title>
<ellipse fill="none" stroke="black" cx="204.39" cy="-848.8" rx="19.5" ry="19.5"/>
<ellipse fill="none" stroke="black" cx="204.39" cy="-848.8" rx="23.5" ry="23.5"/>
<text text-anchor="middle" x="204.39" y="-845.1" font-family="Times,serif" font-size="14.00">W</text>
<text text-anchor="middle" x="137.4" y="-814.1" font-family="Times,serif" font-size="14.00">WHITESPACE</text>
</g>
<!-- S&#45;&gt;W -->
<g id="edge1" class="edge">
<title>S&#45;&gt;W</title>
<path fill="none" stroke="black" d="M19.08,-372.96C19.62,-454.81 23.66,-786.91 54,-820.8 82.95,-853.13 136.37,-855.48 170.87,-853.02"/>
<polygon fill="black" stroke="black" points="171.27,-856.5 180.92,-852.13 170.65,-849.52 171.27,-856.5"/>
<text text-anchor="middle" x="74" y="-848.6" font-family="Times,serif" font-size="14.00">[ \t\r\n]</text>
</g>
<!-- I -->
<g id="node3" class="node">
<title>I</title>
<ellipse fill="none" stroke="black" cx="1012.29" cy="-632.8" rx="18" ry="18"/>
<ellipse fill="none" stroke="black" cx="1012.29" cy="-632.8" rx="22" ry="22"/>
<text text-anchor="middle" x="1012.29" y="-629.1" font-family="Times,serif" font-size="14.00">I</text>
<text text-anchor="middle" x="952.79" y="-599.6" font-family="Times,serif" font-size="14.00">IDENTIFIER</text>
</g>
<!-- S&#45;&gt;I -->
<g id="edge5" class="edge">
<title>S&#45;&gt;I</title>
<path fill="none" stroke="black" d="M19.72,-372.8C23.58,-456.86 45.13,-806.8 136.45,-806.8 136.45,-806.8 136.45,-806.8 826.29,-806.8 910.17,-806.8 971.55,-710.71 997.54,-661.34"/>
<polygon fill="black" stroke="black" points="1000.67,-662.91 1002.13,-652.42 994.44,-659.72 1000.67,-662.91"/>
<text text-anchor="middle" x="408.79" y="-810.6" font-family="Times,serif" font-size="14.00">[a&#45;df&#45;zA&#45;Z]</text>
</g>
<!-- N -->
<g id="node4" class="node">
<title>N</title>
<ellipse fill="none" stroke="black" cx="336.79" cy="-736.8" rx="18" ry="18"/>
<ellipse fill="none" stroke="black" cx="336.79" cy="-736.8" rx="22" ry="22"/>
<text text-anchor="middle" x="336.79" y="-733.1" font-family="Times,serif" font-size="14.00">N</text>
<text text-anchor="middle" x="285.29" y="-703.6" font-family="Times,serif" font-size="14.00">NUMBER</text>
</g>
<!-- S&#45;&gt;N -->
<g id="edge26" class="edge">
<title>S&#45;&gt;N</title>
<path fill="none" stroke="black" d="M21.1,-372.65C29.14,-432.19 63.63,-625.16 180.9,-713.8 216.71,-740.87 270.77,-742.59 304.63,-740.39"/>
<polygon fill="black" stroke="black" points="305.18,-743.86 314.87,-739.57 304.62,-736.88 305.18,-743.86"/>
<text text-anchor="middle" x="137.45" y="-701.6" font-family="Times,serif" font-size="14.00">[0&#45;9]</text>
</g>
<!-- K1 -->
<g id="node5" class="node">
<title>K1</title>
<ellipse fill="none" stroke="black" cx="137.45" cy="-414.8" rx="21.4" ry="21.4"/>
<ellipse fill="none" stroke="black" cx="137.45" cy="-414.8" rx="25.4" ry="25.4"/>
<text text-anchor="middle" x="137.45" y="-411.1" font-family="Times,serif" font-size="14.00">K1</text>
<text text-anchor="middle" x="74.5" y="-378.15" font-family="Times,serif" font-size="14.00">IDENTIFIER</text>
</g>
<!-- S&#45;&gt;K1 -->
<g id="edge8" class="edge">
<title>S&#45;&gt;K1</title>
<path fill="none" stroke="black" d="M34.35,-362.64C52.28,-371.8 82.39,-387.18 105.27,-398.87"/>
<polygon fill="black" stroke="black" points="103.77,-402.04 114.27,-403.47 106.96,-395.8 103.77,-402.04"/>
<text text-anchor="middle" x="74" y="-395.6" font-family="Times,serif" font-size="14.00">e</text>
</g>
<!-- O1 -->
<g id="node12" class="node">
<title>O1</title>
<ellipse fill="none" stroke="black" cx="825.29" cy="-236.8" rx="21.4" ry="21.4"/>
<ellipse fill="none" stroke="black" cx="825.29" cy="-236.8" rx="25.4" ry="25.4"/>
<text text-anchor="middle" x="825.29" y="-233.1" font-family="Times,serif" font-size="14.00">O1</text>
<text text-anchor="middle" x="775.34" y="-200.15" font-family="Times,serif" font-size="14.00">EXLAM</text>
</g>
<!-- S&#45;&gt;O1 -->
<g id="edge33" class="edge">
<title>S&#45;&gt;O1</title>
<path fill="none" stroke="black" d="M26.07,-338.67C41.27,-306.8 80.28,-238.8 136.45,-238.8 136.45,-238.8 136.45,-238.8 625.79,-238.8 683.24,-238.8 750.05,-237.95 789.66,-237.36"/>
<polygon fill="black" stroke="black" points="789.9,-240.86 799.84,-237.2 789.79,-233.86 789.9,-240.86"/>
<text text-anchor="middle" x="336.79" y="-242.6" font-family="Times,serif" font-size="14.00">!</text>
</g>
<!-- E -->
<g id="node14" class="node">
<title>E</title>
<ellipse fill="none" stroke="black" cx="512.29" cy="-161.8" rx="18" ry="18"/>
<ellipse fill="none" stroke="black" cx="512.29" cy="-161.8" rx="22" ry="22"/>
<text text-anchor="middle" x="512.29" y="-158.1" font-family="Times,serif" font-size="14.00">E</text>
<text text-anchor="middle" x="426.79" y="-128.6" font-family="Times,serif" font-size="14.00">END_OF_PROGRAM</text>
</g>
<!-- S&#45;&gt;E -->
<g id="edge37" class="edge">
<title>S&#45;&gt;E</title>
<path fill="none" stroke="black" d="M19.67,-336.54C21.53,-309.54 28.44,-258.51 54,-224.8 79.76,-190.83 93.82,-175.8 136.45,-175.8 136.45,-175.8 136.45,-175.8 337.79,-175.8 387.77,-175.8 445.59,-169.95 480.25,-165.82"/>
<polygon fill="black" stroke="black" points="480.73,-169.29 490.23,-164.6 479.88,-162.34 480.73,-169.29"/>
<text text-anchor="middle" x="204.39" y="-179.6" font-family="Times,serif" font-size="14.00">\x&#45;1</text>
</g>
<!-- T -->
<g id="node15" class="node">
<title>T</title>
<ellipse fill="none" stroke="black" cx="1175.79" cy="-354.8" rx="18" ry="18"/>
<text text-anchor="middle" x="1175.79" y="-351.1" font-family="Times,serif" font-size="14.00">T</text>
</g>
<!-- S&#45;&gt;T -->
<g id="edge39" class="edge">
<title>S&#45;&gt;T</title>
<path fill="none" stroke="black" d="M19.11,-336.67C20.48,-278.89 33.15,-102.8 136.45,-102.8 136.45,-102.8 136.45,-102.8 1013.29,-102.8 1075.14,-102.8 1101.88,-111.93 1139.79,-160.8 1159.54,-186.26 1169.17,-279.25 1172.89,-326.64"/>
<polygon fill="black" stroke="black" points="1169.41,-327.11 1173.65,-336.83 1176.39,-326.59 1169.41,-327.11"/>
<text text-anchor="middle" x="512.29" y="-106.6" font-family="Times,serif" font-size="14.00">[^a&#45;zA&#45;Z0&#45;9!~\x&#45;1]</text>
</g>
<!-- C1 -->
<g id="node16" class="node">
<title>C1</title>
<ellipse fill="none" stroke="black" cx="137.45" cy="-20.8" rx="20.6" ry="20.6"/>
<text text-anchor="middle" x="137.45" y="-17.1" font-family="Times,serif" font-size="14.00">C1</text>
</g>
<!-- S&#45;&gt;C1 -->
<g id="edge29" class="edge">
<title>S&#45;&gt;C1</title>
<path fill="none" stroke="black" d="M19.29,-336.66C20.46,-281.67 26.24,-117.9 54,-73.8 66.58,-53.81 89.76,-39.91 108.34,-31.38"/>
<polygon fill="black" stroke="black" points="109.76,-34.58 117.56,-27.41 106.99,-28.15 109.76,-34.58"/>
<text text-anchor="middle" x="74" y="-77.6" font-family="Times,serif" font-size="14.00">~</text>
</g>
<!-- W&#45;&gt;W -->
<g id="edge2" class="edge">
<title>W&#45;&gt;W</title>
<path fill="none" stroke="black" d="M192.53,-869.3C190.51,-880.28 194.47,-890.3 204.39,-890.3 211.06,-890.3 215.04,-885.78 216.31,-879.48"/>
<polygon fill="black" stroke="black" points="219.81,-879.28 216.26,-869.3 212.81,-879.31 219.81,-879.28"/>
<text text-anchor="middle" x="204.39" y="-894.1" font-family="Times,serif" font-size="14.00">[ \t\r\n]</text>
</g>
<!-- W&#45;&gt;T -->
<g id="edge3" class="edge">
<title>W&#45;&gt;T</title>
<path fill="none" stroke="black" d="M228,-849.91C254,-851.1 297.97,-852.8 335.79,-852.8 335.79,-852.8 335.79,-852.8 1013.29,-852.8 1099.82,-852.8 1105.82,-784.38 1139.79,-704.8 1164.47,-646.97 1172.09,-455.7 1174.13,-383.09"/>
<polygon fill="black" stroke="black" points="1177.63,-382.97 1174.4,-372.88 1170.64,-382.79 1177.63,-382.97"/>
<text text-anchor="middle" x="624.79" y="-856.6" font-family="Times,serif" font-size="14.00">[^ \t\r\n]</text>
</g>
<!-- I&#45;&gt;I -->
<g id="edge6" class="edge">
<title>I&#45;&gt;I</title>
<path fill="none" stroke="black" d="M997.23,-649.23C992.33,-661.04 997.35,-672.8 1012.29,-672.8 1022.91,-672.8 1028.52,-666.85 1029.11,-659.18"/>
<polygon fill="black" stroke="black" points="1032.54,-658.47 1027.35,-649.23 1025.65,-659.69 1032.54,-658.47"/>
<text text-anchor="middle" x="1012.29" y="-676.6" font-family="Times,serif" font-size="14.00">[a&#45;zA&#45;Z0&#45;9]</text>
</g>
<!-- I&#45;&gt;T -->
<g id="edge7" class="edge">
<title>I&#45;&gt;T</title>
<path fill="none" stroke="black" d="M1034.12,-629.64C1062.77,-624.12 1113.76,-609.87 1139.79,-575.8 1162.52,-546.04 1170.86,-435.77 1173.6,-383.12"/>
<polygon fill="black" stroke="black" points="1177.11,-382.97 1174.1,-372.82 1170.12,-382.63 1177.11,-382.97"/>
<text text-anchor="middle" x="1103.29" y="-623.6" font-family="Times,serif" font-size="14.00">[^a&#45;zA&#45;Z0&#45;9]</text>
</g>
<!-- N&#45;&gt;N -->
<g id="edge27" class="edge">
<title>N&#45;&gt;N</title>
<path fill="none" stroke="black" d="M325.45,-755.73C323.13,-766.64 326.91,-776.8 336.79,-776.8 343.42,-776.8 347.31,-772.21 348.44,-765.89"/>
<polygon fill="black" stroke="black" points="351.93,-765.62 348.13,-755.73 344.94,-765.83 351.93,-765.62"/>
<text text-anchor="middle" x="336.79" y="-780.6" font-family="Times,serif" font-size="14.00">[0&#45;9]</text>
</g>
<!-- N&#45;&gt;T -->
<g id="edge28" class="edge">
<title>N&#45;&gt;T</title>
<path fill="none" stroke="black" d="M358.54,-740.55C391.01,-746.09 455.84,-755.8 511.29,-755.8 511.29,-755.8 511.29,-755.8 1013.29,-755.8 1089.87,-755.8 1104.87,-706.95 1139.79,-638.8 1162.44,-594.59 1171.06,-446.13 1173.75,-383.28"/>
<polygon fill="black" stroke="black" points="1177.26,-383.06 1174.17,-372.93 1170.27,-382.78 1177.26,-383.06"/>
<text text-anchor="middle" x="724.79" y="-759.6" font-family="Times,serif" font-size="14.00">[^0&#45;9]</text>
</g>
<!-- K1&#45;&gt;I -->
<g id="edge9" class="edge">
<title>K1&#45;&gt;I</title>
<path fill="none" stroke="black" d="M153.43,-435.16C160.94,-444.41 170.62,-454.99 180.9,-462.8 339.18,-582.99 390.08,-612.36 583.79,-656.8 745.8,-693.96 795.44,-692.48 957.79,-656.8 966.41,-654.9 975.33,-651.54 983.36,-647.91"/>
<polygon fill="black" stroke="black" points="985.14,-650.94 992.63,-643.45 982.1,-644.64 985.14,-650.94"/>
<text text-anchor="middle" x="512.29" y="-655.6" font-family="Times,serif" font-size="14.00">[a&#45;wyzA&#45;Z0&#45;9]</text>
</g>
<!-- K2 -->
<g id="node6" class="node">
<title>K2</title>
<ellipse fill="none" stroke="black" cx="271.34" cy="-458.8" rx="21.4" ry="21.4"/>
<ellipse fill="none" stroke="black" cx="271.34" cy="-458.8" rx="25.4" ry="25.4"/>
<text text-anchor="middle" x="271.34" y="-455.1" font-family="Times,serif" font-size="14.00">K2</text>
<text text-anchor="middle" x="208.39" y="-422.15" font-family="Times,serif" font-size="14.00">IDENTIFIER</text>
</g>
<!-- K1&#45;&gt;K2 -->
<g id="edge10" class="edge">
<title>K1&#45;&gt;K2</title>
<path fill="none" stroke="black" d="M161.72,-422.56C182.69,-429.56 213.74,-439.92 237.28,-447.77"/>
<polygon fill="black" stroke="black" points="236.26,-451.12 246.85,-450.96 238.48,-444.48 236.26,-451.12"/>
<text text-anchor="middle" x="204.39" y="-447.6" font-family="Times,serif" font-size="14.00">x</text>
</g>
<!-- K1&#45;&gt;T -->
<g id="edge11" class="edge">
<title>K1&#45;&gt;T</title>
<path fill="none" stroke="black" d="M149.32,-392.16C168.39,-356.14 211.5,-289.8 270.34,-289.8 270.34,-289.8 270.34,-289.8 725.79,-289.8 911.02,-289.8 961.97,-285.93 1139.79,-337.8 1143.44,-338.86 1147.18,-340.28 1150.79,-341.85"/>
<polygon fill="black" stroke="black" points="1149.37,-345.05 1159.9,-346.19 1152.38,-338.73 1149.37,-345.05"/>
<text text-anchor="middle" x="624.79" y="-293.6" font-family="Times,serif" font-size="14.00">[^a&#45;zA&#45;Z0&#45;9]</text>
</g>
<!-- K2&#45;&gt;I -->
<g id="edge12" class="edge">
<title>K2&#45;&gt;I</title>
<path fill="none" stroke="black" d="M293.38,-471.77C327.4,-492.47 396.95,-533.6 458.79,-562.8 512.9,-588.35 527.12,-593.59 583.79,-612.8 627.5,-627.61 638.1,-634.29 683.79,-640.8 772.23,-653.4 795.45,-642.35 884.79,-642.8 917.23,-642.96 925.48,-645.79 957.79,-642.8 965.21,-642.11 973.13,-640.9 980.54,-639.55"/>
<polygon fill="black" stroke="black" points="981.44,-642.94 990.58,-637.59 980.1,-636.07 981.44,-642.94"/>
<text text-anchor="middle" x="624.79" y="-641.6" font-family="Times,serif" font-size="14.00">[a&#45;hj&#45;zA&#45;Z0&#45;9]</text>
</g>
<!-- K3 -->
<g id="node7" class="node">
<title>K3</title>
<ellipse fill="none" stroke="black" cx="408.79" cy="-469.8" rx="21.4" ry="21.4"/>
<ellipse fill="none" stroke="black" cx="408.79" cy="-469.8" rx="25.4" ry="25.4"/>
<text text-anchor="middle" x="408.79" y="-466.1" font-family="Times,serif" font-size="14.00">K3</text>
<text text-anchor="middle" x="345.84" y="-433.15" font-family="Times,serif" font-size="14.00">IDENTIFIER</text>
</g>
<!-- K2&#45;&gt;K3 -->
<g id="edge13" class="edge">
<title>K2&#45;&gt;K3</title>
<path fill="none" stroke="black" d="M296.87,-460.79C318.12,-462.52 349.11,-465.03 372.93,-466.97"/>
<polygon fill="black" stroke="black" points="372.73,-470.46 382.99,-467.78 373.3,-463.49 372.73,-470.46"/>
<text text-anchor="middle" x="336.79" y="-468.6" font-family="Times,serif" font-size="14.00">i</text>
</g>
<!-- K2&#45;&gt;T -->
<g id="edge14" class="edge">
<title>K2&#45;&gt;T</title>
<path fill="none" stroke="black" d="M294.05,-447.3C328.16,-429.75 396.8,-396.47 458.79,-378.8 718.22,-304.86 1052,-338.98 1147.93,-351.13"/>
<polygon fill="black" stroke="black" points="1147.57,-354.61 1157.94,-352.43 1148.47,-347.67 1147.57,-354.61"/>
<text text-anchor="middle" x="724.79" y="-342.6" font-family="Times,serif" font-size="14.00">[^a&#45;zA&#45;Z0&#45;9]</text>
</g>
<!-- K3&#45;&gt;I -->
<g id="edge15" class="edge">
<title>K3&#45;&gt;I</title>
<path fill="none" stroke="black" d="M425.89,-489.45C434.77,-499.3 446.48,-510.8 458.79,-518.8 622.69,-625.25 689.55,-619.11 884.79,-627.8 917.26,-629.24 954.43,-630.69 980.03,-631.65"/>
<polygon fill="black" stroke="black" points="980.12,-635.16 990.25,-632.03 980.38,-628.16 980.12,-635.16"/>
<text text-anchor="middle" x="724.79" y="-625.6" font-family="Times,serif" font-size="14.00">[a&#45;ru&#45;zA&#45;Z0&#45;9]</text>
</g>
<!-- K4 -->
<g id="node8" class="node">
<title>K4</title>
<ellipse fill="none" stroke="black" cx="825.29" cy="-588.8" rx="21.4" ry="21.4"/>
<ellipse fill="none" stroke="black" cx="825.29" cy="-588.8" rx="25.4" ry="25.4"/>
<text text-anchor="middle" x="825.29" y="-585.1" font-family="Times,serif" font-size="14.00">K4</text>
<text text-anchor="middle" x="784.34" y="-567.15" font-family="Times,serif" font-size="14.00">EXIT</text>
</g>
<!-- K3&#45;&gt;K4 -->
<g id="edge16" class="edge">
<title>K3&#45;&gt;K4</title>
<path fill="none" stroke="black" d="M432.55,-479.18C440.75,-482.42 450.12,-485.94 458.79,-488.8 578.93,-528.41 724.81,-564.94 789.97,-580.66"/>
<polygon fill="black" stroke="black" points="789.55,-584.16 800.09,-583.09 791.18,-577.35 789.55,-584.16"/>
<text text-anchor="middle" x="624.79" y="-551.6" font-family="Times,serif" font-size="14.00">t</text>
</g>
<!-- K5 -->
<g id="node9" class="node">
<title>K5</title>
<ellipse fill="none" stroke="black" cx="624.79" cy="-469.8" rx="21.4" ry="21.4"/>
<ellipse fill="none" stroke="black" cx="624.79" cy="-469.8" rx="25.4" ry="25.4"/>
<text text-anchor="middle" x="624.79" y="-466.1" font-family="Times,serif" font-size="14.00">K5</text>
<text text-anchor="middle" x="561.84" y="-433.15" font-family="Times,serif" font-size="14.00">IDENTIFIER</text>
</g>
<!-- K3&#45;&gt;K5 -->
<g id="edge17" class="edge">
<title>K3&#45;&gt;K5</title>
<path fill="none" stroke="black" d="M434.34,-469.8C472.37,-469.8 545.67,-469.8 589.1,-469.8"/>
<polygon fill="black" stroke="black" points="589.2,-473.3 599.2,-469.8 589.2,-466.3 589.2,-473.3"/>
<text text-anchor="middle" x="512.29" y="-473.6" font-family="Times,serif" font-size="14.00">s</text>
</g>
<!-- K3&#45;&gt;T -->
<g id="edge18" class="edge">
<title>K3&#45;&gt;T</title>
<path fill="none" stroke="black" d="M429.13,-454.37C465.17,-427.24 546.01,-373.8 623.79,-373.8 623.79,-373.8 623.79,-373.8 1013.29,-373.8 1060.97,-373.8 1116.04,-365.53 1147.99,-359.9"/>
<polygon fill="black" stroke="black" points="1148.67,-363.33 1157.89,-358.11 1147.43,-356.44 1148.67,-363.33"/>
<text text-anchor="middle" x="825.29" y="-377.6" font-family="Times,serif" font-size="14.00">[^a&#45;zA&#45;Z0&#45;9]</text>
</g>
<!-- K4&#45;&gt;I -->
<g id="edge19" class="edge">
<title>K4&#45;&gt;I</title>
<path fill="none" stroke="black" d="M850.82,-591.95C877.45,-595.67 921.1,-602.68 957.79,-612.8 965.85,-615.02 974.41,-617.95 982.27,-620.88"/>
<polygon fill="black" stroke="black" points="981.16,-624.21 991.75,-624.54 983.68,-617.68 981.16,-624.21"/>
<text text-anchor="middle" x="921.29" y="-616.6" font-family="Times,serif" font-size="14.00">[a&#45;zA&#45;Z0&#45;9]</text>
</g>
<!-- K4&#45;&gt;T -->
<g id="edge20" class="edge">
<title>K4&#45;&gt;T</title>
<path fill="none" stroke="black" d="M850.93,-585.26C909.46,-575.58 1058.04,-543.27 1139.79,-455.8 1158.6,-435.67 1167.37,-404.91 1171.41,-382.63"/>
<polygon fill="black" stroke="black" points="1174.87,-383.18 1173,-372.75 1167.95,-382.07 1174.87,-383.18"/>
<text text-anchor="middle" x="1012.29" y="-555.6" font-family="Times,serif" font-size="14.00">[^a&#45;zA&#45;Z0&#45;9]</text>
</g>
<!-- K5&#45;&gt;I -->
<g id="edge21" class="edge">
<title>K5&#45;&gt;I</title>
<path fill="none" stroke="black" d="M649.14,-477.71C659.69,-481.22 672.33,-485.33 683.79,-488.8 764.59,-513.28 789.01,-506.95 866.79,-539.8 909.91,-558.01 918.76,-566.96 957.79,-592.8 967.32,-599.1 977.43,-606.48 986.28,-613.17"/>
<polygon fill="black" stroke="black" points="984.23,-616.01 994.3,-619.31 988.49,-610.46 984.23,-616.01"/>
<text text-anchor="middle" x="825.29" y="-543.6" font-family="Times,serif" font-size="14.00">[a&#45;su&#45;zA&#45;Z0&#45;9]</text>
</g>
<!-- K6 -->
<g id="node10" class="node">
<title>K6</title>
<ellipse fill="none" stroke="black" cx="825.29" cy="-469.8" rx="21.4" ry="21.4"/>
<ellipse fill="none" stroke="black" cx="825.29" cy="-469.8" rx="25.4" ry="25.4"/>
<text text-anchor="middle" x="825.29" y="-466.1" font-family="Times,serif" font-size="14.00">K6</text>
<text text-anchor="middle" x="780.34" y="-433.15" font-family="Times,serif" font-size="14.00">EXIST</text>
</g>
<!-- K5&#45;&gt;K6 -->
<g id="edge22" class="edge">
<title>K5&#45;&gt;K6</title>
<path fill="none" stroke="black" d="M650.53,-469.8C685.54,-469.8 749.71,-469.8 789.5,-469.8"/>
<polygon fill="black" stroke="black" points="789.55,-473.3 799.55,-469.8 789.55,-466.3 789.55,-473.3"/>
<text text-anchor="middle" x="724.79" y="-473.6" font-family="Times,serif" font-size="14.00">t</text>
</g>
<!-- K5&#45;&gt;T -->
<g id="edge23" class="edge">
<title>K5&#45;&gt;T</title>
<path fill="none" stroke="black" d="M649.77,-464.03C680.63,-456.74 735.97,-444.15 783.79,-435.8 941.06,-408.32 995.68,-456.52 1139.79,-387.8 1145.92,-384.87 1151.69,-380.47 1156.71,-375.83"/>
<polygon fill="black" stroke="black" points="1159.4,-378.09 1163.92,-368.52 1154.41,-373.18 1159.4,-378.09"/>
<text text-anchor="middle" x="921.29" y="-430.6" font-family="Times,serif" font-size="14.00">[^a&#45;zA&#45;Z0&#45;9]</text>
</g>
<!-- K6&#45;&gt;I -->
<g id="edge24" class="edge">
<title>K6&#45;&gt;I</title>
<path fill="none" stroke="black" d="M850.82,-472.68C884.62,-477.14 943.03,-486.82 957.79,-501.8 983.06,-527.45 961.38,-547.79 975.79,-580.8 979.88,-590.17 985.72,-599.63 991.48,-607.87"/>
<polygon fill="black" stroke="black" points="988.66,-609.94 997.39,-615.95 994.32,-605.81 988.66,-609.94"/>
<text text-anchor="middle" x="921.29" y="-505.6" font-family="Times,serif" font-size="14.00">[a&#45;zA&#45;Z0&#45;9]</text>
</g>
<!-- K6&#45;&gt;T -->
<g id="edge25" class="edge">
<title>K6&#45;&gt;T</title>
<path fill="none" stroke="black" d="M850.84,-469.75C916.42,-469.15 1093.86,-464.39 1139.79,-430.8 1155.52,-419.29 1164.37,-398.98 1169.24,-382.24"/>
<polygon fill="black" stroke="black" points="1172.67,-382.95 1171.78,-372.39 1165.89,-381.2 1172.67,-382.95"/>
<text text-anchor="middle" x="1012.29" y="-468.6" font-family="Times,serif" font-size="14.00">[^a&#45;zA&#45;Z0&#45;9]</text>
</g>
<!-- C2 -->
<g id="node11" class="node">
<title>C2</title>
<ellipse fill="none" stroke="black" cx="724.79" cy="-52.8" rx="20.63" ry="20.63"/>
<ellipse fill="none" stroke="black" cx="724.79" cy="-52.8" rx="24.6" ry="24.6"/>
<text text-anchor="middle" x="724.79" y="-49.1" font-family="Times,serif" font-size="14.00">C2</text>
<text text-anchor="middle" x="664.49" y="-16.8" font-family="Times,serif" font-size="14.00">COMMENT</text>
</g>
<!-- C2&#45;&gt;T -->
<g id="edge32" class="edge">
<title>C2&#45;&gt;T</title>
<path fill="none" stroke="black" d="M748.97,-46.12C818.88,-27.55 1029.54,16.69 1139.79,-88.8 1173.36,-120.92 1175.86,-264.55 1175.33,-326.36"/>
<polygon fill="black" stroke="black" points="1171.83,-326.53 1175.21,-336.57 1178.83,-326.61 1171.83,-326.53"/>
<text text-anchor="middle" x="921.29" y="-26.6" font-family="Times,serif" font-size="14.00">.</text>
</g>
<!-- O2 -->
<g id="node13" class="node">
<title>O2</title>
<ellipse fill="none" stroke="black" cx="1012.29" cy="-244.8" rx="21.4" ry="21.4"/>
<ellipse fill="none" stroke="black" cx="1012.29" cy="-244.8" rx="25.4" ry="25.4"/>
<text text-anchor="middle" x="1012.29" y="-241.1" font-family="Times,serif" font-size="14.00">O2</text>
<text text-anchor="middle" x="938.34" y="-208.15" font-family="Times,serif" font-size="14.00">EXLAM_TILDA</text>
</g>
<!-- O1&#45;&gt;O2 -->
<g id="edge34" class="edge">
<title>O1&#45;&gt;O2</title>
<path fill="none" stroke="black" d="M850.86,-237.86C883.06,-239.25 939.75,-241.7 976.4,-243.29"/>
<polygon fill="black" stroke="black" points="976.48,-246.8 986.62,-243.73 976.78,-239.8 976.48,-246.8"/>
<text text-anchor="middle" x="921.29" y="-245.6" font-family="Times,serif" font-size="14.00">~</text>
</g>
<!-- O1&#45;&gt;T -->
<g id="edge35" class="edge">
<title>O1&#45;&gt;T</title>
<path fill="none" stroke="black" d="M848.84,-226.57C889.18,-209.63 976.23,-179.18 1048.79,-195.8 1092.58,-205.83 1110.58,-205.67 1139.79,-239.8 1160.81,-264.35 1169.2,-301.29 1172.56,-326.64"/>
<polygon fill="black" stroke="black" points="1169.1,-327.18 1173.71,-336.72 1176.05,-326.39 1169.1,-327.18"/>
<text text-anchor="middle" x="1012.29" y="-199.6" font-family="Times,serif" font-size="14.00">[^~]</text>
</g>
<!-- O2&#45;&gt;T -->
<g id="edge36" class="edge">
<title>O2&#45;&gt;T</title>
<path fill="none" stroke="black" d="M1037.8,-242.92C1065.6,-242.13 1110.81,-245.08 1139.79,-268.8 1157.37,-283.18 1166.2,-307.79 1170.59,-327"/>
<polygon fill="black" stroke="black" points="1167.2,-327.91 1172.59,-337.02 1174.06,-326.53 1167.2,-327.91"/>
<text text-anchor="middle" x="1103.29" y="-272.6" font-family="Times,serif" font-size="14.00">.</text>
</g>
<!-- E&#45;&gt;T -->
<g id="edge38" class="edge">
<title>E&#45;&gt;T</title>
<path fill="none" stroke="black" d="M534.27,-159.63C632.72,-149.9 1048.07,-114.32 1139.79,-195.8 1158.99,-212.86 1168.57,-285.84 1172.51,-326.74"/>
<polygon fill="black" stroke="black" points="1169.04,-327.23 1173.43,-336.87 1176.01,-326.6 1169.04,-327.23"/>
<text text-anchor="middle" x="825.29" y="-148.6" font-family="Times,serif" font-size="14.00">.</text>
</g>
<!-- T&#45;&gt;T -->
<g id="edge4" class="edge">
<title>T&#45;&gt;T</title>
<path fill="none" stroke="black" d="M1164.03,-368.84C1159.64,-379.71 1163.55,-390.8 1175.79,-390.8 1184.2,-390.8 1188.68,-385.56 1189.23,-378.75"/>
<polygon fill="black" stroke="black" points="1192.67,-378.11 1187.55,-368.84 1185.77,-379.29 1192.67,-378.11"/>
<text text-anchor="middle" x="1175.79" y="-394.6" font-family="Times,serif" font-size="14.00">.</text>
</g>
<!-- C1&#45;&gt;C2 -->
<g id="edge31" class="edge">
<title>C1&#45;&gt;C2</title>
<path fill="none" stroke="black" d="M157.96,-25.88C183.56,-32.1 230,-41.8 270.34,-41.8 270.34,-41.8 270.34,-41.8 513.29,-41.8 575.57,-41.8 648.07,-46.66 689.68,-49.92"/>
<polygon fill="black" stroke="black" points="689.57,-53.42 699.82,-50.73 690.13,-46.44 689.57,-53.42"/>
<text text-anchor="middle" x="336.79" y="-45.6" font-family="Times,serif" font-size="14.00">\n</text>
</g>
<!-- C1&#45;&gt;C1 -->
<g id="edge30" class="edge">
<title>C1&#45;&gt;C1</title>
<path fill="none" stroke="black" d="M126.55,-38.76C124.13,-49.49 127.76,-59.6 137.45,-59.6 143.96,-59.6 147.73,-55.04 148.77,-48.79"/>
<polygon fill="black" stroke="black" points="152.27,-48.6 148.35,-38.76 145.28,-48.9 152.27,-48.6"/>
<text text-anchor="middle" x="137.45" y="-63.4" font-family="Times,serif" font-size="14.00">[^\n]</text>
</g>
</g>
</svg>
