<?xml version="1.0" encoding="UTF-8" standalone="no"?>
<!DOCTYPE svg PUBLIC "-//W3C//DTD SVG 1.1//EN"
 "http://www.w3.org/Graphics/SVG/1.1/DTD/svg11.dtd">
<!-- Generated by graphviz version 2.43.0 (0)
 -->
<!-- Title: nondeterministic Pages: 1 -->
<svg width="651pt" height="722pt"
 viewBox="0.00 0.00 650.97 721.85" xmlns="http://www.w3.org/2000/svg" xmlns:xlink="http://www.w3.org/1999/xlink">
<g id="graph0" class="graph" transform="scale(1 1) rotate(0) translate(4 717.85)">
<title>nondeterministic</title>
<polygon fill="white" stroke="transparent" points="-4,4 -4,-717.85 646.97,-717.85 646.97,4 -4,4"/>
<!-- S -->
<g id="node1" class="node">
<title>S</title>
<ellipse fill="none" stroke="black" stroke-width="2" cx="18" cy="-326.8" rx="18" ry="18"/>
<text text-anchor="middle" x="18" y="-323.1" font-family="Times,serif" font-size="14.00">S</text>
</g>
<!-- W1 -->
<g id="node11" class="node">
<title>W1</title>
<ellipse fill="none" stroke="black" cx="103.05" cy="-620.8" rx="24.1" ry="24.1"/>
<text text-anchor="middle" x="103.05" y="-617.1" font-family="Times,serif" font-size="14.00">W1</text>
</g>
<!-- S&#45;&gt;W1 -->
<g id="edge1" class="edge">
<title>S&#45;&gt;W1</title>
<path fill="none" stroke="black" d="M22.98,-344.26C31.92,-382.89 54.7,-478.36 79,-556.8 82.25,-567.29 86.18,-578.6 89.87,-588.76"/>
<polygon fill="black" stroke="black" points="86.7,-590.28 93.44,-598.46 93.27,-587.86 86.7,-590.28"/>
<text text-anchor="middle" x="57.5" y="-497.6" font-family="Times,serif" font-size="14.00">λ</text>
</g>
<!-- I1 -->
<g id="node12" class="node">
<title>I1</title>
<ellipse fill="none" stroke="black" cx="103.05" cy="-529.8" rx="18.4" ry="18.4"/>
<text text-anchor="middle" x="103.05" y="-526.1" font-family="Times,serif" font-size="14.00">I1</text>
</g>
<!-- S&#45;&gt;I1 -->
<g id="edge2" class="edge">
<title>S&#45;&gt;I1</title>
<path fill="none" stroke="black" d="M25.11,-343.58C35.57,-372.05 57.83,-431.49 79,-480.8 82.34,-488.57 86.18,-496.94 89.75,-504.52"/>
<polygon fill="black" stroke="black" points="86.62,-506.07 94.08,-513.59 92.94,-503.06 86.62,-506.07"/>
<text text-anchor="middle" x="57.5" y="-437.6" font-family="Times,serif" font-size="14.00">λ</text>
</g>
<!-- N1 -->
<g id="node13" class="node">
<title>N1</title>
<ellipse fill="none" stroke="black" cx="103.05" cy="-450.8" rx="21.4" ry="21.4"/>
<text text-anchor="middle" x="103.05" y="-447.1" font-family="Times,serif" font-size="14.00">N1</text>
</g>
<!-- S&#45;&gt;N1 -->
<g id="edge3" class="edge">
<title>S&#45;&gt;N1</title>
<path fill="none" stroke="black" d="M28.65,-341.7C40.4,-359.78 60.93,-391.18 79,-417.8 80.66,-420.24 82.39,-422.77 84.14,-425.3"/>
<polygon fill="black" stroke="black" points="81.42,-427.52 90,-433.73 87.17,-423.52 81.42,-427.52"/>
<text text-anchor="middle" x="57.5" y="-393.6" font-family="Times,serif" font-size="14.00">λ</text>
</g>
<!-- K1 -->
<g id="node14" class="node">
<title>K1</title>
<ellipse fill="none" stroke="black" cx="103.05" cy="-387.8" rx="21.4" ry="21.4"/>
<text text-anchor="middle" x="103.05" y="-384.1" font-family="Times,serif" font-size="14.00">K1</text>
</g>
<!-- S&#45;&gt;K1 -->
<g id="edge4" class="edge">
<title>S&#45;&gt;K1</title>
<path fill="none" stroke="black" d="M33.09,-337.15C45.04,-345.93 62.5,-358.75 76.85,-369.29"/>
<polygon fill="black" stroke="black" points="75.18,-372.41 85.31,-375.5 79.32,-366.76 75.18,-372.41"/>
<text text-anchor="middle" x="57.5" y="-360.6" font-family="Times,serif" font-size="14.00">λ</text>
</g>
<!-- K6 -->
<g id="node15" class="node">
<title>K6</title>
<ellipse fill="none" stroke="black" cx="103.05" cy="-326.8" rx="21.4" ry="21.4"/>
<text text-anchor="middle" x="103.05" y="-323.1" font-family="Times,serif" font-size="14.00">K6</text>
</g>
<!-- S&#45;&gt;K6 -->
<g id="edge5" class="edge">
<title>S&#45;&gt;K6</title>
<path fill="none" stroke="black" d="M36.21,-326.8C46.25,-326.8 59.21,-326.8 70.98,-326.8"/>
<polygon fill="black" stroke="black" points="71.34,-330.3 81.34,-326.8 71.34,-323.3 71.34,-330.3"/>
<text text-anchor="middle" x="57.5" y="-330.6" font-family="Times,serif" font-size="14.00">λ</text>
</g>
<!-- O1 -->
<g id="node16" class="node">
<title>O1</title>
<ellipse fill="none" stroke="black" cx="103.05" cy="-263.8" rx="21.4" ry="21.4"/>
<text text-anchor="middle" x="103.05" y="-260.1" font-family="Times,serif" font-size="14.00">O1</text>
</g>
<!-- S&#45;&gt;O1 -->
<g id="edge6" class="edge">
<title>S&#45;&gt;O1</title>
<path fill="none" stroke="black" d="M32.71,-316.39C44.81,-307.22 62.72,-293.63 77.31,-282.56"/>
<polygon fill="black" stroke="black" points="79.6,-285.22 85.45,-276.39 75.37,-279.64 79.6,-285.22"/>
<text text-anchor="middle" x="57.5" y="-302.6" font-family="Times,serif" font-size="14.00">λ</text>
</g>
<!-- O3 -->
<g id="node17" class="node">
<title>O3</title>
<ellipse fill="none" stroke="black" cx="103.05" cy="-200.8" rx="21.4" ry="21.4"/>
<text text-anchor="middle" x="103.05" y="-197.1" font-family="Times,serif" font-size="14.00">O3</text>
</g>
<!-- S&#45;&gt;O3 -->
<g id="edge7" class="edge">
<title>S&#45;&gt;O3</title>
<path fill="none" stroke="black" d="M28.39,-311.87C40.07,-293.41 60.68,-261.08 79,-233.8 80.64,-231.35 82.37,-228.81 84.11,-226.28"/>
<polygon fill="black" stroke="black" points="87.14,-228.05 89.97,-217.84 81.39,-224.06 87.14,-228.05"/>
<text text-anchor="middle" x="57.5" y="-272.6" font-family="Times,serif" font-size="14.00">λ</text>
</g>
<!-- C1 -->
<g id="node18" class="node">
<title>C1</title>
<ellipse fill="none" stroke="black" cx="103.05" cy="-128.8" rx="20.6" ry="20.6"/>
<text text-anchor="middle" x="103.05" y="-125.1" font-family="Times,serif" font-size="14.00">C1</text>
</g>
<!-- S&#45;&gt;C1 -->
<g id="edge8" class="edge">
<title>S&#45;&gt;C1</title>
<path fill="none" stroke="black" d="M24.75,-309.64C34.67,-280.57 56.16,-220.02 79,-170.8 81.36,-165.71 84.08,-160.38 86.81,-155.29"/>
<polygon fill="black" stroke="black" points="89.89,-156.96 91.64,-146.51 83.75,-153.59 89.89,-156.96"/>
<text text-anchor="middle" x="57.5" y="-228.6" font-family="Times,serif" font-size="14.00">λ</text>
</g>
<!-- E1 -->
<g id="node19" class="node">
<title>E1</title>
<ellipse fill="none" stroke="black" cx="103.05" cy="-66.8" rx="20.6" ry="20.6"/>
<text text-anchor="middle" x="103.05" y="-63.1" font-family="Times,serif" font-size="14.00">E1</text>
</g>
<!-- S&#45;&gt;E1 -->
<g id="edge9" class="edge">
<title>S&#45;&gt;E1</title>
<path fill="none" stroke="black" d="M21.43,-308.88C27.27,-269.38 44.25,-172.47 79,-98.8 80.26,-96.13 81.75,-93.45 83.35,-90.84"/>
<polygon fill="black" stroke="black" points="86.39,-92.6 89.1,-82.36 80.59,-88.67 86.39,-92.6"/>
<text text-anchor="middle" x="57.5" y="-162.6" font-family="Times,serif" font-size="14.00">λ</text>
</g>
<!-- W2 -->
<g id="node2" class="node">
<title>W2</title>
<ellipse fill="none" stroke="black" cx="240.14" cy="-652.8" rx="24.09" ry="24.09"/>
<ellipse fill="none" stroke="black" cx="240.14" cy="-652.8" rx="28.1" ry="28.1"/>
<text text-anchor="middle" x="240.14" y="-649.1" font-family="Times,serif" font-size="14.00">W2</text>
<text text-anchor="middle" x="224.69" y="-613.55" font-family="Times,serif" font-size="14.00">WHITESPACE</text>
</g>
<!-- W2&#45;&gt;W2 -->
<g id="edge11" class="edge">
<title>W2&#45;&gt;W2</title>
<path fill="none" stroke="black" d="M230.83,-679.3C230.3,-689.93 233.41,-698.85 240.14,-698.85 244.57,-698.85 247.42,-695 248.72,-689.36"/>
<polygon fill="black" stroke="black" points="252.21,-689.53 249.46,-679.3 245.23,-689.01 252.21,-689.53"/>
<text text-anchor="middle" x="240.14" y="-702.65" font-family="Times,serif" font-size="14.00">[ \t\r\n]</text>
</g>
<!-- I2 -->
<g id="node3" class="node">
<title>I2</title>
<ellipse fill="none" stroke="black" cx="240.14" cy="-551.8" rx="18.36" ry="18.36"/>
<ellipse fill="none" stroke="black" cx="240.14" cy="-551.8" rx="22.4" ry="22.4"/>
<text text-anchor="middle" x="240.14" y="-548.1" font-family="Times,serif" font-size="14.00">I2</text>
<text text-anchor="middle" x="180.45" y="-518.4" font-family="Times,serif" font-size="14.00">IDENTIFIER</text>
</g>
<!-- I2&#45;&gt;I2 -->
<g id="edge13" class="edge">
<title>I2&#45;&gt;I2</title>
<path fill="none" stroke="black" d="M231.05,-572.48C229.79,-582.8 232.82,-592 240.14,-592 244.84,-592 247.77,-588.22 248.94,-582.79"/>
<polygon fill="black" stroke="black" points="252.44,-582.58 249.24,-572.48 245.45,-582.37 252.44,-582.58"/>
<text text-anchor="middle" x="240.14" y="-595.8" font-family="Times,serif" font-size="14.00">[a&#45;zA&#45;Z0&#45;9]</text>
</g>
<!-- N2 -->
<g id="node4" class="node">
<title>N2</title>
<ellipse fill="none" stroke="black" cx="240.14" cy="-452.8" rx="21.4" ry="21.4"/>
<ellipse fill="none" stroke="black" cx="240.14" cy="-452.8" rx="25.4" ry="25.4"/>
<text text-anchor="middle" x="240.14" y="-449.1" font-family="Times,serif" font-size="14.00">N2</text>
<text text-anchor="middle" x="185.2" y="-416.15" font-family="Times,serif" font-size="14.00">NUMBER</text>
</g>
<!-- N2&#45;&gt;N2 -->
<g id="edge15" class="edge">
<title>N2&#45;&gt;N2</title>
<path fill="none" stroke="black" d="M230.88,-476.93C230.12,-487.33 233.21,-496.25 240.14,-496.25 244.59,-496.25 247.45,-492.59 248.73,-487.22"/>
<polygon fill="black" stroke="black" points="252.25,-487.13 249.41,-476.93 245.26,-486.68 252.25,-487.13"/>
<text text-anchor="middle" x="240.14" y="-500.05" font-family="Times,serif" font-size="14.00">[0&#45;9]</text>
</g>
<!-- K5 -->
<g id="node5" class="node">
<title>K5</title>
<ellipse fill="none" stroke="black" cx="516.98" cy="-390.8" rx="21.4" ry="21.4"/>
<ellipse fill="none" stroke="black" cx="516.98" cy="-390.8" rx="25.4" ry="25.4"/>
<text text-anchor="middle" x="516.98" y="-387.1" font-family="Times,serif" font-size="14.00">K5</text>
<text text-anchor="middle" x="476.03" y="-354.15" font-family="Times,serif" font-size="14.00">EXIT</text>
</g>
<!-- K11 -->
<g id="node6" class="node">
<title>K11</title>
<ellipse fill="none" stroke="black" cx="612.98" cy="-321.8" rx="26" ry="26"/>
<ellipse fill="none" stroke="black" cx="612.98" cy="-321.8" rx="30" ry="30"/>
<text text-anchor="middle" x="612.98" y="-318.1" font-family="Times,serif" font-size="14.00">K11</text>
<text text-anchor="middle" x="563.48" y="-280.6" font-family="Times,serif" font-size="14.00">EXIST</text>
</g>
<!-- O2 -->
<g id="node7" class="node">
<title>O2</title>
<ellipse fill="none" stroke="black" cx="240.14" cy="-261.8" rx="21.4" ry="21.4"/>
<ellipse fill="none" stroke="black" cx="240.14" cy="-261.8" rx="25.4" ry="25.4"/>
<text text-anchor="middle" x="240.14" y="-258.1" font-family="Times,serif" font-size="14.00">O2</text>
<text text-anchor="middle" x="218.59" y="-225.15" font-family="Times,serif" font-size="14.00">EXLAMATORY</text>
</g>
<!-- O5 -->
<g id="node8" class="node">
<title>O5</title>
<ellipse fill="none" stroke="black" cx="340.64" cy="-196.8" rx="21.4" ry="21.4"/>
<ellipse fill="none" stroke="black" cx="340.64" cy="-196.8" rx="25.4" ry="25.4"/>
<text text-anchor="middle" x="340.64" y="-193.1" font-family="Times,serif" font-size="14.00">O5</text>
<text text-anchor="middle" x="437.09" y="-160.15" font-family="Times,serif" font-size="14.00">EXLAMATORY_TILDA</text>
</g>
<!-- C3 -->
<g id="node9" class="node">
<title>C3</title>
<ellipse fill="none" stroke="black" cx="340.64" cy="-103.8" rx="20.63" ry="20.63"/>
<ellipse fill="none" stroke="black" cx="340.64" cy="-103.8" rx="24.6" ry="24.6"/>
<text text-anchor="middle" x="340.64" y="-100.1" font-family="Times,serif" font-size="14.00">C3</text>
<text text-anchor="middle" x="280.34" y="-67.8" font-family="Times,serif" font-size="14.00">COMMENT</text>
</g>
<!-- E2 -->
<g id="node10" class="node">
<title>E2</title>
<ellipse fill="none" stroke="black" cx="240.14" cy="-39.8" rx="20.63" ry="20.63"/>
<ellipse fill="none" stroke="black" cx="240.14" cy="-39.8" rx="24.6" ry="24.6"/>
<text text-anchor="middle" x="240.14" y="-36.1" font-family="Times,serif" font-size="14.00">E2</text>
<text text-anchor="middle" x="151.85" y="-3.8" font-family="Times,serif" font-size="14.00">END_OF_PROGRAM</text>
</g>
<!-- W1&#45;&gt;W2 -->
<g id="edge10" class="edge">
<title>W1&#45;&gt;W2</title>
<path fill="none" stroke="black" d="M126.66,-626.15C147.43,-631.07 178.57,-638.45 202.82,-644.2"/>
<polygon fill="black" stroke="black" points="202.21,-647.65 212.75,-646.55 203.82,-640.83 202.21,-647.65"/>
<text text-anchor="middle" x="169.6" y="-644.6" font-family="Times,serif" font-size="14.00">[ \t\r\n]</text>
</g>
<!-- I1&#45;&gt;I2 -->
<g id="edge12" class="edge">
<title>I1&#45;&gt;I2</title>
<path fill="none" stroke="black" d="M121.16,-532.58C142.97,-536.14 181.09,-542.34 208.09,-546.74"/>
<polygon fill="black" stroke="black" points="207.76,-550.23 218.19,-548.39 208.88,-543.32 207.76,-550.23"/>
<text text-anchor="middle" x="169.6" y="-547.6" font-family="Times,serif" font-size="14.00">[a&#45;zA&#45;Z]</text>
</g>
<!-- N1&#45;&gt;N2 -->
<g id="edge14" class="edge">
<title>N1&#45;&gt;N2</title>
<path fill="none" stroke="black" d="M124.57,-451.1C145.62,-451.41 178.78,-451.9 204.02,-452.28"/>
<polygon fill="black" stroke="black" points="204.24,-455.78 214.29,-452.43 204.35,-448.78 204.24,-455.78"/>
<text text-anchor="middle" x="169.6" y="-455.6" font-family="Times,serif" font-size="14.00">[0&#45;9]</text>
</g>
<!-- K2 -->
<g id="node20" class="node">
<title>K2</title>
<ellipse fill="none" stroke="black" cx="240.14" cy="-387.8" rx="21.4" ry="21.4"/>
<text text-anchor="middle" x="240.14" y="-384.1" font-family="Times,serif" font-size="14.00">K2</text>
</g>
<!-- K1&#45;&gt;K2 -->
<g id="edge16" class="edge">
<title>K1&#45;&gt;K2</title>
<path fill="none" stroke="black" d="M124.57,-387.8C146.78,-387.8 182.48,-387.8 208.12,-387.8"/>
<polygon fill="black" stroke="black" points="208.43,-391.3 218.43,-387.8 208.43,-384.3 208.43,-391.3"/>
<text text-anchor="middle" x="169.6" y="-391.6" font-family="Times,serif" font-size="14.00">e</text>
</g>
<!-- K7 -->
<g id="node23" class="node">
<title>K7</title>
<ellipse fill="none" stroke="black" cx="240.14" cy="-326.8" rx="21.4" ry="21.4"/>
<text text-anchor="middle" x="240.14" y="-323.1" font-family="Times,serif" font-size="14.00">K7</text>
</g>
<!-- K6&#45;&gt;K7 -->
<g id="edge20" class="edge">
<title>K6&#45;&gt;K7</title>
<path fill="none" stroke="black" d="M124.57,-326.8C146.78,-326.8 182.48,-326.8 208.12,-326.8"/>
<polygon fill="black" stroke="black" points="208.43,-330.3 218.43,-326.8 208.43,-323.3 208.43,-330.3"/>
<text text-anchor="middle" x="169.6" y="-330.6" font-family="Times,serif" font-size="14.00">e</text>
</g>
<!-- O1&#45;&gt;O2 -->
<g id="edge25" class="edge">
<title>O1&#45;&gt;O2</title>
<path fill="none" stroke="black" d="M124.57,-263.49C145.62,-263.18 178.78,-262.69 204.02,-262.32"/>
<polygon fill="black" stroke="black" points="204.35,-265.81 214.29,-262.17 204.24,-258.81 204.35,-265.81"/>
<text text-anchor="middle" x="169.6" y="-266.6" font-family="Times,serif" font-size="14.00">!</text>
</g>
<!-- O4 -->
<g id="node27" class="node">
<title>O4</title>
<ellipse fill="none" stroke="black" cx="240.14" cy="-196.8" rx="21.4" ry="21.4"/>
<text text-anchor="middle" x="240.14" y="-193.1" font-family="Times,serif" font-size="14.00">O4</text>
</g>
<!-- O3&#45;&gt;O4 -->
<g id="edge26" class="edge">
<title>O3&#45;&gt;O4</title>
<path fill="none" stroke="black" d="M124.57,-200.19C146.78,-199.53 182.48,-198.48 208.12,-197.72"/>
<polygon fill="black" stroke="black" points="208.54,-201.21 218.43,-197.41 208.33,-194.21 208.54,-201.21"/>
<text text-anchor="middle" x="169.6" y="-202.6" font-family="Times,serif" font-size="14.00">!</text>
</g>
<!-- C2 -->
<g id="node28" class="node">
<title>C2</title>
<ellipse fill="none" stroke="black" cx="240.14" cy="-103.8" rx="20.6" ry="20.6"/>
<text text-anchor="middle" x="240.14" y="-100.1" font-family="Times,serif" font-size="14.00">C2</text>
</g>
<!-- C1&#45;&gt;C2 -->
<g id="edge28" class="edge">
<title>C1&#45;&gt;C2</title>
<path fill="none" stroke="black" d="M123.69,-125.16C146.2,-121 183.34,-114.12 209.4,-109.3"/>
<polygon fill="black" stroke="black" points="210.28,-112.7 219.48,-107.44 209.01,-105.82 210.28,-112.7"/>
<text text-anchor="middle" x="169.6" y="-123.6" font-family="Times,serif" font-size="14.00">~</text>
</g>
<!-- E1&#45;&gt;E2 -->
<g id="edge31" class="edge">
<title>E1&#45;&gt;E2</title>
<path fill="none" stroke="black" d="M123.69,-62.87C145.05,-58.6 179.56,-51.71 205.3,-46.56"/>
<polygon fill="black" stroke="black" points="206.26,-49.94 215.38,-44.55 204.89,-43.08 206.26,-49.94"/>
<text text-anchor="middle" x="169.6" y="-62.6" font-family="Times,serif" font-size="14.00">\x128</text>
</g>
<!-- K3 -->
<g id="node21" class="node">
<title>K3</title>
<ellipse fill="none" stroke="black" cx="340.64" cy="-387.8" rx="21.4" ry="21.4"/>
<text text-anchor="middle" x="340.64" y="-384.1" font-family="Times,serif" font-size="14.00">K3</text>
</g>
<!-- K2&#45;&gt;K3 -->
<g id="edge17" class="edge">
<title>K2&#45;&gt;K3</title>
<path fill="none" stroke="black" d="M262.03,-387.8C275.7,-387.8 293.8,-387.8 309.08,-387.8"/>
<polygon fill="black" stroke="black" points="309.12,-391.3 319.12,-387.8 309.12,-384.3 309.12,-391.3"/>
<text text-anchor="middle" x="291.69" y="-391.6" font-family="Times,serif" font-size="14.00">x</text>
</g>
<!-- K4 -->
<g id="node22" class="node">
<title>K4</title>
<ellipse fill="none" stroke="black" cx="427.54" cy="-389.8" rx="21.4" ry="21.4"/>
<text text-anchor="middle" x="427.54" y="-386.1" font-family="Times,serif" font-size="14.00">K4</text>
</g>
<!-- K3&#45;&gt;K4 -->
<g id="edge18" class="edge">
<title>K3&#45;&gt;K4</title>
<path fill="none" stroke="black" d="M362.19,-388.28C372.23,-388.52 384.52,-388.81 395.66,-389.07"/>
<polygon fill="black" stroke="black" points="395.8,-392.57 405.88,-389.31 395.96,-385.58 395.8,-392.57"/>
<text text-anchor="middle" x="386.09" y="-392.6" font-family="Times,serif" font-size="14.00">i</text>
</g>
<!-- K4&#45;&gt;K5 -->
<g id="edge19" class="edge">
<title>K4&#45;&gt;K5</title>
<path fill="none" stroke="black" d="M449.26,-390.04C458.83,-390.14 470.45,-390.28 481.3,-390.4"/>
<polygon fill="black" stroke="black" points="481.33,-393.9 491.37,-390.52 481.41,-386.9 481.33,-393.9"/>
<text text-anchor="middle" x="469.98" y="-393.6" font-family="Times,serif" font-size="14.00">t</text>
</g>
<!-- K8 -->
<g id="node24" class="node">
<title>K8</title>
<ellipse fill="none" stroke="black" cx="340.64" cy="-326.8" rx="21.4" ry="21.4"/>
<text text-anchor="middle" x="340.64" y="-323.1" font-family="Times,serif" font-size="14.00">K8</text>
</g>
<!-- K7&#45;&gt;K8 -->
<g id="edge21" class="edge">
<title>K7&#45;&gt;K8</title>
<path fill="none" stroke="black" d="M262.03,-326.8C275.7,-326.8 293.8,-326.8 309.08,-326.8"/>
<polygon fill="black" stroke="black" points="309.12,-330.3 319.12,-326.8 309.12,-323.3 309.12,-330.3"/>
<text text-anchor="middle" x="291.69" y="-330.6" font-family="Times,serif" font-size="14.00">x</text>
</g>
<!-- K9 -->
<g id="node25" class="node">
<title>K9</title>
<ellipse fill="none" stroke="black" cx="427.54" cy="-326.8" rx="21.4" ry="21.4"/>
<text text-anchor="middle" x="427.54" y="-323.1" font-family="Times,serif" font-size="14.00">K9</text>
</g>
<!-- K8&#45;&gt;K9 -->
<g id="edge22" class="edge">
<title>K8&#45;&gt;K9</title>
<path fill="none" stroke="black" d="M362.19,-326.8C372.23,-326.8 384.52,-326.8 395.66,-326.8"/>
<polygon fill="black" stroke="black" points="395.88,-330.3 405.88,-326.8 395.88,-323.3 395.88,-330.3"/>
<text text-anchor="middle" x="386.09" y="-330.6" font-family="Times,serif" font-size="14.00">i</text>
</g>
<!-- K10 -->
<g id="node26" class="node">
<title>K10</title>
<ellipse fill="none" stroke="black" cx="516.98" cy="-321.8" rx="26" ry="26"/>
<text text-anchor="middle" x="516.98" y="-318.1" font-family="Times,serif" font-size="14.00">K10</text>
</g>
<!-- K9&#45;&gt;K10 -->
<g id="edge23" class="edge">
<title>K9&#45;&gt;K10</title>
<path fill="none" stroke="black" d="M449.26,-325.61C458.58,-325.08 469.84,-324.44 480.45,-323.83"/>
<polygon fill="black" stroke="black" points="480.94,-327.31 490.73,-323.24 480.54,-320.32 480.94,-327.31"/>
<text text-anchor="middle" x="469.98" y="-327.6" font-family="Times,serif" font-size="14.00">s</text>
</g>
<!-- K10&#45;&gt;K11 -->
<g id="edge24" class="edge">
<title>K10&#45;&gt;K11</title>
<path fill="none" stroke="black" d="M543.17,-321.8C552.21,-321.8 562.64,-321.8 572.59,-321.8"/>
<polygon fill="black" stroke="black" points="572.72,-325.3 582.72,-321.8 572.72,-318.3 572.72,-325.3"/>
<text text-anchor="middle" x="562.98" y="-325.6" font-family="Times,serif" font-size="14.00">t</text>
</g>
<!-- O4&#45;&gt;O5 -->
<g id="edge27" class="edge">
<title>O4&#45;&gt;O5</title>
<path fill="none" stroke="black" d="M262.03,-196.8C274.48,-196.8 290.6,-196.8 304.92,-196.8"/>
<polygon fill="black" stroke="black" points="304.95,-200.3 314.95,-196.8 304.95,-193.3 304.95,-200.3"/>
<text text-anchor="middle" x="291.69" y="-200.6" font-family="Times,serif" font-size="14.00">~</text>
</g>
<!-- C2&#45;&gt;C3 -->
<g id="edge30" class="edge">
<title>C2&#45;&gt;C3</title>
<path fill="none" stroke="black" d="M261.08,-103.8C273.74,-103.8 290.47,-103.8 305.24,-103.8"/>
<polygon fill="black" stroke="black" points="305.56,-107.3 315.56,-103.8 305.56,-100.3 305.56,-107.3"/>
<text text-anchor="middle" x="291.69" y="-107.6" font-family="Times,serif" font-size="14.00">\n</text>
</g>
<!-- C2&#45;&gt;C2 -->
<g id="edge29" class="edge">
<title>C2&#45;&gt;C2</title>
<path fill="none" stroke="black" d="M231.16,-122.96C229.63,-133.24 232.62,-142.6 240.14,-142.6 244.96,-142.6 247.92,-138.75 249.03,-133.29"/>
<polygon fill="black" stroke="black" points="252.53,-133 249.13,-122.96 245.53,-132.93 252.53,-133"/>
<text text-anchor="middle" x="240.14" y="-146.4" font-family="Times,serif" font-size="14.00">[^\n]</text>
</g>
</g>
</svg>
