<?xml version="1.0" encoding="UTF-8" standalone="no"?>
<!DOCTYPE svg PUBLIC "-//W3C//DTD SVG 1.1//EN"
 "http://www.w3.org/Graphics/SVG/1.1/DTD/svg11.dtd">
<!-- Generated by graphviz version 2.43.0 (0)
 -->
<!-- Title: nondeterministic Pages: 1 -->
<svg width="846pt" height="542pt"
 viewBox="0.00 0.00 845.86 542.15" xmlns="http://www.w3.org/2000/svg" xmlns:xlink="http://www.w3.org/1999/xlink">
<g id="graph0" class="graph" transform="scale(1 1) rotate(0) translate(4 538.15)">
<title>nondeterministic</title>
<polygon fill="white" stroke="transparent" points="-4,4 -4,-538.15 841.86,-538.15 841.86,4 -4,4"/>
<!-- s -->
<g id="node1" class="node">
<title>s</title>
<ellipse fill="none" stroke="black" stroke-width="2" cx="18" cy="-278" rx="18" ry="18"/>
<text text-anchor="middle" x="18" y="-274.3" font-family="Times,serif" font-size="14.00">s</text>
</g>
<!-- ws -->
<g id="node8" class="node">
<title>ws</title>
<ellipse fill="none" stroke="black" cx="99.8" cy="-486" rx="20.6" ry="20.6"/>
<text text-anchor="middle" x="99.8" y="-482.3" font-family="Times,serif" font-size="14.00">ws</text>
</g>
<!-- s&#45;&gt;ws -->
<g id="edge1" class="edge">
<title>s&#45;&gt;ws</title>
<path fill="none" stroke="black" d="M25.4,-294.67C38.98,-330.09 70.86,-413.19 87.79,-457.31"/>
<polygon fill="black" stroke="black" points="84.61,-458.78 91.46,-466.87 91.14,-456.28 84.61,-458.78"/>
<text text-anchor="middle" x="57.5" y="-385.8" font-family="Times,serif" font-size="14.00">λ</text>
</g>
<!-- is -->
<g id="node9" class="node">
<title>is</title>
<ellipse fill="none" stroke="black" cx="99.8" cy="-386" rx="18" ry="18"/>
<text text-anchor="middle" x="99.8" y="-382.3" font-family="Times,serif" font-size="14.00">is</text>
</g>
<!-- s&#45;&gt;is -->
<g id="edge2" class="edge">
<title>s&#45;&gt;is</title>
<path fill="none" stroke="black" d="M29.43,-292.12C42.87,-310.31 66.4,-342.15 82.28,-363.64"/>
<polygon fill="black" stroke="black" points="79.61,-365.91 88.36,-371.88 85.24,-361.75 79.61,-365.91"/>
<text text-anchor="middle" x="57.5" y="-335.8" font-family="Times,serif" font-size="14.00">λ</text>
</g>
<!-- ns -->
<g id="node10" class="node">
<title>ns</title>
<ellipse fill="none" stroke="black" cx="99.8" cy="-313" rx="18.7" ry="18.7"/>
<text text-anchor="middle" x="99.8" y="-309.3" font-family="Times,serif" font-size="14.00">ns</text>
</g>
<!-- s&#45;&gt;ns -->
<g id="edge3" class="edge">
<title>s&#45;&gt;ns</title>
<path fill="none" stroke="black" d="M34.77,-284.91C45.59,-289.66 60.21,-296.07 72.75,-301.57"/>
<polygon fill="black" stroke="black" points="71.68,-304.93 82.24,-305.74 74.49,-298.52 71.68,-304.93"/>
<text text-anchor="middle" x="57.5" y="-298.8" font-family="Times,serif" font-size="14.00">λ</text>
</g>
<!-- ks -->
<g id="node11" class="node">
<title>ks</title>
<ellipse fill="none" stroke="black" cx="99.8" cy="-255" rx="18.7" ry="18.7"/>
<text text-anchor="middle" x="99.8" y="-251.3" font-family="Times,serif" font-size="14.00">ks</text>
</g>
<!-- s&#45;&gt;ks -->
<g id="edge4" class="edge">
<title>s&#45;&gt;ks</title>
<path fill="none" stroke="black" d="M35.53,-273.23C45.91,-270.24 59.55,-266.31 71.51,-262.87"/>
<polygon fill="black" stroke="black" points="72.82,-266.13 81.46,-260 70.88,-259.4 72.82,-266.13"/>
<text text-anchor="middle" x="57.5" y="-270.8" font-family="Times,serif" font-size="14.00">λ</text>
</g>
<!-- os -->
<g id="node12" class="node">
<title>os</title>
<ellipse fill="none" stroke="black" cx="99.8" cy="-186" rx="18.7" ry="18.7"/>
<text text-anchor="middle" x="99.8" y="-182.3" font-family="Times,serif" font-size="14.00">os</text>
</g>
<!-- s&#45;&gt;os -->
<g id="edge5" class="edge">
<title>s&#45;&gt;os</title>
<path fill="none" stroke="black" d="M30.43,-264.82C43.44,-249.82 64.86,-225.12 80.26,-207.37"/>
<polygon fill="black" stroke="black" points="82.96,-209.61 86.87,-199.76 77.67,-205.02 82.96,-209.61"/>
<text text-anchor="middle" x="57.5" y="-240.8" font-family="Times,serif" font-size="14.00">λ</text>
</g>
<!-- cs -->
<g id="node13" class="node">
<title>cs</title>
<ellipse fill="none" stroke="black" cx="99.8" cy="-105" rx="18.4" ry="18.4"/>
<text text-anchor="middle" x="99.8" y="-101.3" font-family="Times,serif" font-size="14.00">cs</text>
</g>
<!-- s&#45;&gt;cs -->
<g id="edge6" class="edge">
<title>s&#45;&gt;cs</title>
<path fill="none" stroke="black" d="M26.36,-262.03C40.19,-232.06 70.14,-167.13 86.87,-130.85"/>
<polygon fill="black" stroke="black" points="90.21,-131.98 91.22,-121.43 83.85,-129.05 90.21,-131.98"/>
<text text-anchor="middle" x="57.5" y="-204.8" font-family="Times,serif" font-size="14.00">λ</text>
</g>
<!-- wf -->
<g id="node2" class="node">
<title>wf</title>
<ellipse fill="none" stroke="black" cx="229.74" cy="-510" rx="20.27" ry="20.27"/>
<ellipse fill="none" stroke="black" cx="229.74" cy="-510" rx="24.3" ry="24.3"/>
<text text-anchor="middle" x="229.74" y="-506.3" font-family="Times,serif" font-size="14.00">wf</text>
<text text-anchor="middle" x="210.39" y="-474.65" font-family="Times,serif" font-size="14.00">WHITESPACE</text>
</g>
<!-- if -->
<g id="node3" class="node">
<title>if</title>
<ellipse fill="none" stroke="black" cx="229.74" cy="-413" rx="18" ry="18"/>
<ellipse fill="none" stroke="black" cx="229.74" cy="-413" rx="22" ry="22"/>
<text text-anchor="middle" x="229.74" y="-409.3" font-family="Times,serif" font-size="14.00">if</text>
<text text-anchor="middle" x="170.24" y="-379.8" font-family="Times,serif" font-size="14.00">IDENTIFIER</text>
</g>
<!-- if&#45;&gt;if -->
<g id="edge9" class="edge">
<title>if&#45;&gt;if</title>
<path fill="none" stroke="black" d="M221.37,-433.58C220.22,-443.84 223.01,-453 229.74,-453 234.06,-453 236.76,-449.24 237.83,-443.84"/>
<polygon fill="black" stroke="black" points="241.34,-443.67 238.11,-433.58 234.34,-443.48 241.34,-443.67"/>
<text text-anchor="middle" x="229.74" y="-456.8" font-family="Times,serif" font-size="14.00">[a&#45;zA&#45;Z0&#45;9]</text>
</g>
<!-- nf -->
<g id="node4" class="node">
<title>nf</title>
<ellipse fill="none" stroke="black" cx="229.74" cy="-318" rx="18.36" ry="18.36"/>
<ellipse fill="none" stroke="black" cx="229.74" cy="-318" rx="22.4" ry="22.4"/>
<text text-anchor="middle" x="229.74" y="-314.3" font-family="Times,serif" font-size="14.00">nf</text>
<text text-anchor="middle" x="178.05" y="-284.6" font-family="Times,serif" font-size="14.00">NUMBER</text>
</g>
<!-- nf&#45;&gt;nf -->
<g id="edge11" class="edge">
<title>nf&#45;&gt;nf</title>
<path fill="none" stroke="black" d="M221.37,-338.68C220.22,-349 223.01,-358.2 229.74,-358.2 234.06,-358.2 236.76,-354.42 237.83,-349"/>
<polygon fill="black" stroke="black" points="241.34,-348.77 238.11,-338.68 234.34,-348.58 241.34,-348.77"/>
<text text-anchor="middle" x="229.74" y="-362" font-family="Times,serif" font-size="14.00">[0&#45;9]</text>
</g>
<!-- kf -->
<g id="node5" class="node">
<title>kf</title>
<ellipse fill="none" stroke="black" cx="815.67" cy="-225" rx="18.36" ry="18.36"/>
<ellipse fill="none" stroke="black" cx="815.67" cy="-225" rx="22.4" ry="22.4"/>
<text text-anchor="middle" x="815.67" y="-221.3" font-family="Times,serif" font-size="14.00">kf</text>
<text text-anchor="middle" x="802.86" y="-191.6" font-family="Times,serif" font-size="14.00">KEYWORD</text>
</g>
<!-- of -->
<g id="node6" class="node">
<title>of</title>
<ellipse fill="none" stroke="black" cx="229.74" cy="-129" rx="18.36" ry="18.36"/>
<ellipse fill="none" stroke="black" cx="229.74" cy="-129" rx="22.4" ry="22.4"/>
<text text-anchor="middle" x="229.74" y="-125.3" font-family="Times,serif" font-size="14.00">of</text>
<text text-anchor="middle" x="213.94" y="-95.6" font-family="Times,serif" font-size="14.00">OPERATION</text>
</g>
<!-- cf -->
<g id="node7" class="node">
<title>cf</title>
<ellipse fill="none" stroke="black" cx="324.94" cy="-37" rx="18" ry="18"/>
<ellipse fill="none" stroke="black" cx="324.94" cy="-37" rx="22" ry="22"/>
<text text-anchor="middle" x="324.94" y="-33.3" font-family="Times,serif" font-size="14.00">cf</text>
<text text-anchor="middle" x="267.44" y="-3.8" font-family="Times,serif" font-size="14.00">COMMENT</text>
</g>
<!-- ws&#45;&gt;wf -->
<g id="edge7" class="edge">
<title>ws&#45;&gt;wf</title>
<path fill="none" stroke="black" d="M120.51,-489.7C140.54,-493.45 171.92,-499.34 195.74,-503.81"/>
<polygon fill="black" stroke="black" points="195.29,-507.29 205.76,-505.69 196.58,-500.41 195.29,-507.29"/>
<text text-anchor="middle" x="163.1" y="-505.8" font-family="Times,serif" font-size="14.00">[ \t\r\n]</text>
</g>
<!-- is&#45;&gt;if -->
<g id="edge8" class="edge">
<title>is&#45;&gt;if</title>
<path fill="none" stroke="black" d="M117.52,-389.53C137.89,-393.83 172.67,-401.17 197.93,-406.5"/>
<polygon fill="black" stroke="black" points="197.26,-409.93 207.76,-408.57 198.7,-403.08 197.26,-409.93"/>
<text text-anchor="middle" x="163.1" y="-407.8" font-family="Times,serif" font-size="14.00">[a&#45;zA&#45;Z]</text>
</g>
<!-- ns&#45;&gt;nf -->
<g id="edge10" class="edge">
<title>ns&#45;&gt;nf</title>
<path fill="none" stroke="black" d="M118.86,-313.71C139.14,-314.5 172.43,-315.8 197.07,-316.76"/>
<polygon fill="black" stroke="black" points="197.24,-320.27 207.36,-317.16 197.51,-313.28 197.24,-320.27"/>
<text text-anchor="middle" x="163.1" y="-319.8" font-family="Times,serif" font-size="14.00">[0&#45;9]</text>
</g>
<!-- k0s -->
<g id="node14" class="node">
<title>k0s</title>
<ellipse fill="none" stroke="black" cx="229.74" cy="-255" rx="23" ry="23"/>
<text text-anchor="middle" x="229.74" y="-251.3" font-family="Times,serif" font-size="14.00">k0s</text>
</g>
<!-- ks&#45;&gt;k0s -->
<g id="edge12" class="edge">
<title>ks&#45;&gt;k0s</title>
<path fill="none" stroke="black" d="M118.86,-255C139.02,-255 172.04,-255 196.63,-255"/>
<polygon fill="black" stroke="black" points="196.92,-258.5 206.92,-255 196.92,-251.5 196.92,-258.5"/>
<text text-anchor="middle" x="163.1" y="-258.8" font-family="Times,serif" font-size="14.00">λ</text>
</g>
<!-- k1s -->
<g id="node15" class="node">
<title>k1s</title>
<ellipse fill="none" stroke="black" cx="229.74" cy="-192" rx="23" ry="23"/>
<text text-anchor="middle" x="229.74" y="-188.3" font-family="Times,serif" font-size="14.00">k1s</text>
</g>
<!-- ks&#45;&gt;k1s -->
<g id="edge13" class="edge">
<title>ks&#45;&gt;k1s</title>
<path fill="none" stroke="black" d="M116.96,-246.82C123.65,-243.45 131.49,-239.52 138.6,-236 159.01,-225.89 182.09,-214.63 199.79,-206.03"/>
<polygon fill="black" stroke="black" points="201.55,-209.06 209.02,-201.55 198.49,-202.77 201.55,-209.06"/>
<text text-anchor="middle" x="163.1" y="-239.8" font-family="Times,serif" font-size="14.00">λ</text>
</g>
<!-- os&#45;&gt;of -->
<g id="edge25" class="edge">
<title>os&#45;&gt;of</title>
<path fill="none" stroke="black" d="M116.87,-177.62C123.54,-174.22 131.39,-170.32 138.6,-167 158.76,-157.69 181.85,-147.98 199.62,-140.7"/>
<polygon fill="black" stroke="black" points="200.94,-143.94 208.88,-136.93 198.3,-137.46 200.94,-143.94"/>
<text text-anchor="middle" x="163.1" y="-170.8" font-family="Times,serif" font-size="14.00">!</text>
</g>
<!-- c1 -->
<g id="node25" class="node">
<title>c1</title>
<ellipse fill="none" stroke="black" cx="229.74" cy="-37" rx="18.7" ry="18.7"/>
<text text-anchor="middle" x="229.74" y="-33.3" font-family="Times,serif" font-size="14.00">c1</text>
</g>
<!-- cs&#45;&gt;c1 -->
<g id="edge26" class="edge">
<title>cs&#45;&gt;c1</title>
<path fill="none" stroke="black" d="M116.23,-96.8C138.02,-85.22 178.01,-63.96 203.98,-50.16"/>
<polygon fill="black" stroke="black" points="205.67,-53.23 212.86,-45.44 202.38,-47.05 205.67,-53.23"/>
<text text-anchor="middle" x="163.1" y="-87.8" font-family="Times,serif" font-size="14.00">~</text>
</g>
<!-- k01 -->
<g id="node16" class="node">
<title>k01</title>
<ellipse fill="none" stroke="black" cx="324.94" cy="-256" rx="24.1" ry="24.1"/>
<text text-anchor="middle" x="324.94" y="-252.3" font-family="Times,serif" font-size="14.00">k01</text>
</g>
<!-- k0s&#45;&gt;k01 -->
<g id="edge14" class="edge">
<title>k0s&#45;&gt;k01</title>
<path fill="none" stroke="black" d="M252.83,-255.24C264.1,-255.36 278.04,-255.51 290.59,-255.64"/>
<polygon fill="black" stroke="black" points="290.68,-259.14 300.71,-255.75 290.75,-252.14 290.68,-259.14"/>
<text text-anchor="middle" x="277.39" y="-258.8" font-family="Times,serif" font-size="14.00">e</text>
</g>
<!-- k11 -->
<g id="node20" class="node">
<title>k11</title>
<ellipse fill="none" stroke="black" cx="324.94" cy="-190" rx="24.1" ry="24.1"/>
<text text-anchor="middle" x="324.94" y="-186.3" font-family="Times,serif" font-size="14.00">k11</text>
</g>
<!-- k1s&#45;&gt;k11 -->
<g id="edge18" class="edge">
<title>k1s&#45;&gt;k11</title>
<path fill="none" stroke="black" d="M252.83,-191.53C264.1,-191.28 278.04,-190.98 290.59,-190.72"/>
<polygon fill="black" stroke="black" points="290.79,-194.21 300.71,-190.5 290.64,-187.21 290.79,-194.21"/>
<text text-anchor="middle" x="277.39" y="-194.8" font-family="Times,serif" font-size="14.00">e</text>
</g>
<!-- k02 -->
<g id="node17" class="node">
<title>k02</title>
<ellipse fill="none" stroke="black" cx="416.04" cy="-256" rx="24.1" ry="24.1"/>
<text text-anchor="middle" x="416.04" y="-252.3" font-family="Times,serif" font-size="14.00">k02</text>
</g>
<!-- k01&#45;&gt;k02 -->
<g id="edge15" class="edge">
<title>k01&#45;&gt;k02</title>
<path fill="none" stroke="black" d="M349.35,-256C359.17,-256 370.78,-256 381.48,-256"/>
<polygon fill="black" stroke="black" points="381.78,-259.5 391.78,-256 381.78,-252.5 381.78,-259.5"/>
<text text-anchor="middle" x="370.49" y="-259.8" font-family="Times,serif" font-size="14.00">x</text>
</g>
<!-- k03 -->
<g id="node18" class="node">
<title>k03</title>
<ellipse fill="none" stroke="black" cx="504.13" cy="-256" rx="24.1" ry="24.1"/>
<text text-anchor="middle" x="504.13" y="-252.3" font-family="Times,serif" font-size="14.00">k03</text>
</g>
<!-- k02&#45;&gt;k03 -->
<g id="edge16" class="edge">
<title>k02&#45;&gt;k03</title>
<path fill="none" stroke="black" d="M440.11,-256C449.28,-256 460,-256 469.97,-256"/>
<polygon fill="black" stroke="black" points="470,-259.5 480,-256 470,-252.5 470,-259.5"/>
<text text-anchor="middle" x="460.08" y="-259.8" font-family="Times,serif" font-size="14.00">i</text>
</g>
<!-- k04 -->
<g id="node19" class="node">
<title>k04</title>
<ellipse fill="none" stroke="black" cx="660.32" cy="-255" rx="24.1" ry="24.1"/>
<text text-anchor="middle" x="660.32" y="-251.3" font-family="Times,serif" font-size="14.00">k04</text>
</g>
<!-- k03&#45;&gt;k04 -->
<g id="edge17" class="edge">
<title>k03&#45;&gt;k04</title>
<path fill="none" stroke="black" d="M528.22,-255.85C554.1,-255.68 596.32,-255.41 625.84,-255.22"/>
<polygon fill="black" stroke="black" points="626.1,-258.72 636.08,-255.15 626.06,-251.72 626.1,-258.72"/>
<text text-anchor="middle" x="549.18" y="-258.8" font-family="Times,serif" font-size="14.00">t</text>
</g>
<!-- k04&#45;&gt;kf -->
<g id="edge23" class="edge">
<title>k04&#45;&gt;kf</title>
<path fill="none" stroke="black" d="M684.28,-250.51C710.62,-245.36 753.96,-236.88 783.38,-231.12"/>
<polygon fill="black" stroke="black" points="784.39,-234.49 793.53,-229.14 783.04,-227.62 784.39,-234.49"/>
<text text-anchor="middle" x="726.42" y="-249.8" font-family="Times,serif" font-size="14.00">λ</text>
</g>
<!-- k12 -->
<g id="node21" class="node">
<title>k12</title>
<ellipse fill="none" stroke="black" cx="416.04" cy="-190" rx="24.1" ry="24.1"/>
<text text-anchor="middle" x="416.04" y="-186.3" font-family="Times,serif" font-size="14.00">k12</text>
</g>
<!-- k11&#45;&gt;k12 -->
<g id="edge19" class="edge">
<title>k11&#45;&gt;k12</title>
<path fill="none" stroke="black" d="M349.35,-190C359.17,-190 370.78,-190 381.48,-190"/>
<polygon fill="black" stroke="black" points="381.78,-193.5 391.78,-190 381.78,-186.5 381.78,-193.5"/>
<text text-anchor="middle" x="370.49" y="-193.8" font-family="Times,serif" font-size="14.00">x</text>
</g>
<!-- k13 -->
<g id="node22" class="node">
<title>k13</title>
<ellipse fill="none" stroke="black" cx="504.13" cy="-190" rx="24.1" ry="24.1"/>
<text text-anchor="middle" x="504.13" y="-186.3" font-family="Times,serif" font-size="14.00">k13</text>
</g>
<!-- k12&#45;&gt;k13 -->
<g id="edge20" class="edge">
<title>k12&#45;&gt;k13</title>
<path fill="none" stroke="black" d="M440.11,-190C449.28,-190 460,-190 469.97,-190"/>
<polygon fill="black" stroke="black" points="470,-193.5 480,-190 470,-186.5 470,-193.5"/>
<text text-anchor="middle" x="460.08" y="-193.8" font-family="Times,serif" font-size="14.00">i</text>
</g>
<!-- k14 -->
<g id="node23" class="node">
<title>k14</title>
<ellipse fill="none" stroke="black" cx="594.23" cy="-194" rx="24.1" ry="24.1"/>
<text text-anchor="middle" x="594.23" y="-190.3" font-family="Times,serif" font-size="14.00">k14</text>
</g>
<!-- k13&#45;&gt;k14 -->
<g id="edge21" class="edge">
<title>k13&#45;&gt;k14</title>
<path fill="none" stroke="black" d="M528.28,-191.05C537.91,-191.49 549.29,-192 559.8,-192.48"/>
<polygon fill="black" stroke="black" points="559.78,-195.98 569.93,-192.94 560.1,-188.99 559.78,-195.98"/>
<text text-anchor="middle" x="549.18" y="-195.8" font-family="Times,serif" font-size="14.00">s</text>
</g>
<!-- k15 -->
<g id="node24" class="node">
<title>k15</title>
<ellipse fill="none" stroke="black" cx="726.42" cy="-195" rx="24.1" ry="24.1"/>
<text text-anchor="middle" x="726.42" y="-191.3" font-family="Times,serif" font-size="14.00">k15</text>
</g>
<!-- k14&#45;&gt;k15 -->
<g id="edge22" class="edge">
<title>k14&#45;&gt;k15</title>
<path fill="none" stroke="black" d="M618.5,-194.18C639.05,-194.34 669.25,-194.57 692.31,-194.75"/>
<polygon fill="black" stroke="black" points="692.32,-198.25 702.35,-194.82 692.37,-191.25 692.32,-198.25"/>
<text text-anchor="middle" x="660.32" y="-197.8" font-family="Times,serif" font-size="14.00">t</text>
</g>
<!-- k15&#45;&gt;kf -->
<g id="edge24" class="edge">
<title>k15&#45;&gt;kf</title>
<path fill="none" stroke="black" d="M749.44,-202.57C760.13,-206.25 773.15,-210.72 784.73,-214.71"/>
<polygon fill="black" stroke="black" points="783.86,-218.11 794.45,-218.05 786.13,-211.49 783.86,-218.11"/>
<text text-anchor="middle" x="771.97" y="-213.8" font-family="Times,serif" font-size="14.00">λ</text>
</g>
<!-- c1&#45;&gt;cf -->
<g id="edge28" class="edge">
<title>c1&#45;&gt;cf</title>
<path fill="none" stroke="black" d="M248.71,-37C261.14,-37 278.01,-37 292.62,-37"/>
<polygon fill="black" stroke="black" points="292.76,-40.5 302.76,-37 292.76,-33.5 292.76,-40.5"/>
<text text-anchor="middle" x="277.39" y="-40.8" font-family="Times,serif" font-size="14.00">\n</text>
</g>
<!-- c1&#45;&gt;c1 -->
<g id="edge27" class="edge">
<title>c1&#45;&gt;c1</title>
<path fill="none" stroke="black" d="M221.66,-54.06C219.86,-64.25 222.56,-73.85 229.74,-73.85 234.35,-73.85 237.11,-69.91 238.03,-64.4"/>
<polygon fill="black" stroke="black" points="241.52,-63.99 237.83,-54.06 234.52,-64.12 241.52,-63.99"/>
<text text-anchor="middle" x="229.74" y="-77.65" font-family="Times,serif" font-size="14.00">[^\n]</text>
</g>
</g>
</svg>
